M48
METRIC,TZ
T1C0.400
T2C1.000
T3C1.200
T4C1.400
%
G90
G05
T1
X132000Y-113600
X151800Y-102000
X168000Y-101600
T2
X117914Y-117482
X117914Y-125991
X120514Y-90765
X122486Y-117482
X122486Y-125991
X124270Y-103730
X124270Y-106270
X125086Y-90765
X126314Y-108682
X126314Y-117191
X126314Y-126282
X126314Y-134791
X126810Y-103730
X126810Y-106270
X129350Y-103730
X129350Y-106270
X130886Y-108682
X130886Y-117191
X130886Y-126282
X130886Y-134791
X131890Y-103730
X131890Y-106270
X134430Y-103730
X134430Y-106270
X134714Y-117482
X134714Y-125991
X136970Y-103730
X136970Y-106270
X139286Y-117482
X139286Y-125991
X139510Y-103730
X139510Y-106270
X142050Y-103730
X142050Y-106270
X142090Y-96530
X142090Y-99070
X144590Y-103730
X144590Y-106270
X144630Y-96530
X144630Y-99070
X147130Y-103730
X147130Y-106270
X147170Y-96530
X147170Y-99070
X149670Y-103730
X149670Y-106270
X149710Y-96530
X149710Y-99070
X152210Y-103730
X152210Y-106270
X152250Y-96530
X152250Y-99070
X154750Y-103730
X154750Y-106270
X154790Y-96530
X154790Y-99070
X157290Y-103730
X157290Y-106270
X157330Y-96530
X157330Y-99070
X157514Y-117482
X157514Y-125991
X159830Y-103730
X159830Y-106270
X159870Y-96530
X159870Y-99070
X162086Y-117482
X162086Y-125991
X162370Y-103730
X162370Y-106270
X162410Y-96530
X162410Y-99070
X164910Y-103730
X164910Y-106270
X164950Y-96530
X164950Y-99070
X165914Y-108682
X165914Y-117191
X165914Y-126282
X165914Y-134791
X167450Y-103730
X167450Y-106270
X167490Y-96530
X167490Y-99070
X169990Y-103730
X169990Y-106270
X170030Y-96530
X170030Y-99070
X170486Y-108682
X170486Y-117191
X170486Y-126282
X170486Y-134791
X172314Y-90565
X172530Y-103730
X172530Y-106270
X172570Y-96530
X172570Y-99070
X174314Y-117482
X174314Y-125991
X176886Y-90565
X178886Y-117482
X178886Y-125991
T3
X139498Y-131600
X146102Y-131600
X150698Y-131600
X157302Y-131600
T4
X118990Y-93178
X126483Y-93305
X170790Y-92978
X178283Y-93105
T0
M30
