G04 #@! TF.FileFunction,Copper,L1,Top,Signal*
%FSLAX46Y46*%
G04 Gerber Fmt 4.6, Leading zero omitted, Abs format (unit mm)*
G04 Created by KiCad (PCBNEW 4.0.5+dfsg1-4) date Wed Feb 14 20:28:42 2018*
%MOMM*%
%LPD*%
G01*
G04 APERTURE LIST*
%ADD10C,0.100000*%
%ADD11C,1.600000*%
%ADD12C,2.000000*%
%ADD13C,1.800000*%
%ADD14C,0.600000*%
%ADD15C,0.250000*%
G04 APERTURE END LIST*
D10*
D11*
X120514000Y-90765000D03*
X125086000Y-90765000D03*
D12*
X126483000Y-93305000D03*
X118990000Y-93178000D03*
D13*
X146102000Y-131600000D03*
X139498000Y-131600000D03*
X157302000Y-131600000D03*
X150698000Y-131600000D03*
D11*
X172314000Y-90565000D03*
X176886000Y-90565000D03*
D12*
X178283000Y-93105000D03*
X170790000Y-92978000D03*
D11*
X130886000Y-117191000D03*
X126314000Y-117191000D03*
X130886000Y-108682000D03*
X126314000Y-108682000D03*
X162086000Y-125991000D03*
X157514000Y-125991000D03*
X162086000Y-117482000D03*
X157514000Y-117482000D03*
X170486000Y-134791000D03*
X165914000Y-134791000D03*
X170486000Y-126282000D03*
X165914000Y-126282000D03*
X142090000Y-96530000D03*
X144630000Y-96530000D03*
X147170000Y-96530000D03*
X149710000Y-96530000D03*
X152250000Y-96530000D03*
X154790000Y-96530000D03*
X157330000Y-96530000D03*
X159870000Y-96530000D03*
X162410000Y-96530000D03*
X164950000Y-96530000D03*
X167490000Y-96530000D03*
X170030000Y-96530000D03*
X172570000Y-96530000D03*
X142090000Y-99070000D03*
X172570000Y-99070000D03*
X170030000Y-99070000D03*
X167490000Y-99070000D03*
X164950000Y-99070000D03*
X162410000Y-99070000D03*
X159870000Y-99070000D03*
X157330000Y-99070000D03*
X154790000Y-99070000D03*
X152250000Y-99070000D03*
X149710000Y-99070000D03*
X147170000Y-99070000D03*
X144630000Y-99070000D03*
X178886000Y-125991000D03*
X174314000Y-125991000D03*
X178886000Y-117482000D03*
X174314000Y-117482000D03*
X139286000Y-125991000D03*
X134714000Y-125991000D03*
X139286000Y-117482000D03*
X134714000Y-117482000D03*
X170486000Y-117191000D03*
X165914000Y-117191000D03*
X170486000Y-108682000D03*
X165914000Y-108682000D03*
X122486000Y-125991000D03*
X117914000Y-125991000D03*
X122486000Y-117482000D03*
X117914000Y-117482000D03*
X130886000Y-134791000D03*
X126314000Y-134791000D03*
X130886000Y-126282000D03*
X126314000Y-126282000D03*
X147130000Y-106270000D03*
X147130000Y-103730000D03*
X144590000Y-106270000D03*
X142050000Y-106270000D03*
X139510000Y-106270000D03*
X136970000Y-106270000D03*
X134430000Y-106270000D03*
X131890000Y-106270000D03*
X129350000Y-106270000D03*
X126810000Y-106270000D03*
X124270000Y-106270000D03*
X144590000Y-103730000D03*
X142050000Y-103730000D03*
X139510000Y-103730000D03*
X136970000Y-103730000D03*
X134430000Y-103730000D03*
X131890000Y-103730000D03*
X129350000Y-103730000D03*
X126810000Y-103730000D03*
X124270000Y-103730000D03*
X149670000Y-106270000D03*
X149670000Y-103730000D03*
X152210000Y-106270000D03*
X152210000Y-103730000D03*
X154750000Y-106270000D03*
X154750000Y-103730000D03*
X157290000Y-106270000D03*
X157290000Y-103730000D03*
X159830000Y-106270000D03*
X159830000Y-103730000D03*
X162370000Y-106270000D03*
X162370000Y-103730000D03*
X164910000Y-106270000D03*
X164910000Y-103730000D03*
X167450000Y-106270000D03*
X167450000Y-103730000D03*
X169990000Y-106270000D03*
X169990000Y-103730000D03*
X172530000Y-106270000D03*
X172530000Y-103730000D03*
D14*
X151800000Y-102000000D03*
X132000000Y-113600000D03*
X168000000Y-101600000D03*
D15*
X144630000Y-96530000D02*
X144630000Y-97030000D01*
X144630000Y-97030000D02*
X146000000Y-98400000D01*
X146000000Y-98400000D02*
X146000000Y-104400000D01*
X146000000Y-104400000D02*
X146600000Y-105000000D01*
X146600000Y-105000000D02*
X147600000Y-105000000D01*
X147600000Y-105000000D02*
X148400000Y-105800000D01*
X148400000Y-105800000D02*
X148400000Y-107000000D01*
X148400000Y-107000000D02*
X149200000Y-107800000D01*
X149200000Y-107800000D02*
X150680000Y-107800000D01*
X150680000Y-107800000D02*
X152210000Y-106270000D01*
X147170000Y-96530000D02*
X147170000Y-97170000D01*
X147170000Y-97170000D02*
X148400000Y-98400000D01*
X148400000Y-98400000D02*
X148400000Y-105000000D01*
X148400000Y-105000000D02*
X149670000Y-106270000D01*
X149710000Y-96530000D02*
X149710000Y-96710000D01*
X149710000Y-96710000D02*
X151000000Y-98000000D01*
X151000000Y-98000000D02*
X151000000Y-104800000D01*
X151000000Y-104800000D02*
X151200000Y-105000000D01*
X151200000Y-105000000D02*
X153200000Y-105000000D01*
X153200000Y-105000000D02*
X153600000Y-105400000D01*
X153600000Y-105400000D02*
X153600000Y-107600000D01*
X153600000Y-107600000D02*
X152800000Y-108400000D01*
X152800000Y-108400000D02*
X148600000Y-108400000D01*
X148600000Y-108400000D02*
X147130000Y-106930000D01*
X147130000Y-106930000D02*
X147130000Y-106270000D01*
X154790000Y-96530000D02*
X154730000Y-96530000D01*
X154730000Y-96530000D02*
X153400000Y-95200000D01*
X153400000Y-95200000D02*
X141200000Y-95200000D01*
X141200000Y-95200000D02*
X140400000Y-96000000D01*
X140400000Y-96000000D02*
X140400000Y-102200000D01*
X140400000Y-102200000D02*
X140800000Y-102600000D01*
X140800000Y-102600000D02*
X140800000Y-105020000D01*
X140800000Y-105020000D02*
X142050000Y-106270000D01*
X157330000Y-96530000D02*
X157130000Y-96530000D01*
X157130000Y-96530000D02*
X155200000Y-94600000D01*
X155200000Y-94600000D02*
X141000000Y-94600000D01*
X141000000Y-94600000D02*
X139800000Y-95800000D01*
X139800000Y-95800000D02*
X139800000Y-100800000D01*
X139800000Y-100800000D02*
X138200000Y-102400000D01*
X138200000Y-102400000D02*
X138200000Y-104960000D01*
X138200000Y-104960000D02*
X139510000Y-106270000D01*
X159870000Y-96530000D02*
X159870000Y-96270000D01*
X159870000Y-96270000D02*
X157600000Y-94000000D01*
X157600000Y-94000000D02*
X140800000Y-94000000D01*
X140800000Y-94000000D02*
X139200000Y-95600000D01*
X139200000Y-95600000D02*
X139200000Y-100600000D01*
X139200000Y-100600000D02*
X137600000Y-102200000D01*
X137600000Y-102200000D02*
X136600000Y-102200000D01*
X136600000Y-102200000D02*
X135600000Y-103200000D01*
X135600000Y-103200000D02*
X135600000Y-104900000D01*
X135600000Y-104900000D02*
X136970000Y-106270000D01*
X172570000Y-99070000D02*
X172270000Y-99070000D01*
X172270000Y-99070000D02*
X171400000Y-98200000D01*
X171400000Y-98200000D02*
X171400000Y-96000000D01*
X171400000Y-96000000D02*
X170200000Y-94800000D01*
X170200000Y-94800000D02*
X169200000Y-94800000D01*
X169200000Y-94800000D02*
X168400000Y-94000000D01*
X168400000Y-94000000D02*
X160000000Y-94000000D01*
X160000000Y-94000000D02*
X158600000Y-92600000D01*
X158600000Y-92600000D02*
X139800000Y-92600000D01*
X139800000Y-92600000D02*
X137200000Y-95200000D01*
X137200000Y-95200000D02*
X137200000Y-99600000D01*
X137200000Y-99600000D02*
X136400000Y-100400000D01*
X136400000Y-100400000D02*
X127600000Y-100400000D01*
X127600000Y-100400000D02*
X124270000Y-103730000D01*
X170030000Y-99070000D02*
X169870000Y-99070000D01*
X169870000Y-99070000D02*
X168800000Y-98000000D01*
X168800000Y-98000000D02*
X168800000Y-95800000D01*
X168800000Y-95800000D02*
X167800000Y-94800000D01*
X167800000Y-94800000D02*
X159400000Y-94800000D01*
X159400000Y-94800000D02*
X158000000Y-93400000D01*
X158000000Y-93400000D02*
X140200000Y-93400000D01*
X140200000Y-93400000D02*
X138200000Y-95400000D01*
X138200000Y-95400000D02*
X138200000Y-100200000D01*
X138200000Y-100200000D02*
X137200000Y-101200000D01*
X137200000Y-101200000D02*
X129340000Y-101200000D01*
X129340000Y-101200000D02*
X126810000Y-103730000D01*
X152250000Y-99070000D02*
X152250000Y-101550000D01*
X152250000Y-101550000D02*
X151800000Y-102000000D01*
X126314000Y-108682000D02*
X127282000Y-108682000D01*
X133200000Y-107580000D02*
X131890000Y-106270000D01*
X133200000Y-110000000D02*
X133200000Y-107580000D01*
X132800000Y-110400000D02*
X133200000Y-110000000D01*
X129000000Y-110400000D02*
X132800000Y-110400000D01*
X127282000Y-108682000D02*
X129000000Y-110400000D01*
X134714000Y-117482000D02*
X134714000Y-111286000D01*
X138200000Y-105600000D02*
X136970000Y-104370000D01*
X138200000Y-107800000D02*
X138200000Y-105600000D01*
X134714000Y-111286000D02*
X138200000Y-107800000D01*
X136970000Y-104370000D02*
X136970000Y-103730000D01*
X117914000Y-117482000D02*
X119318000Y-117482000D01*
X135800000Y-105800000D02*
X134430000Y-104430000D01*
X135800000Y-108800000D02*
X135800000Y-105800000D01*
X133200000Y-111400000D02*
X135800000Y-108800000D01*
X125400000Y-111400000D02*
X133200000Y-111400000D01*
X119318000Y-117482000D02*
X125400000Y-111400000D01*
X134430000Y-104430000D02*
X134430000Y-103730000D01*
X126314000Y-126282000D02*
X126314000Y-119886000D01*
X131200000Y-113600000D02*
X132000000Y-113600000D01*
X129000000Y-115800000D02*
X131200000Y-113600000D01*
X129000000Y-117200000D02*
X129000000Y-115800000D01*
X126314000Y-119886000D02*
X129000000Y-117200000D01*
X146102000Y-131600000D02*
X146102000Y-119998000D01*
X146102000Y-119998000D02*
X159830000Y-106270000D01*
X157302000Y-131600000D02*
X155200000Y-131600000D01*
X162370000Y-108230000D02*
X162370000Y-106270000D01*
X151200000Y-119400000D02*
X162370000Y-108230000D01*
X151200000Y-127600000D02*
X151200000Y-119400000D01*
X155200000Y-131600000D02*
X151200000Y-127600000D01*
X120514000Y-90765000D02*
X120765000Y-90765000D01*
X120765000Y-90765000D02*
X125200000Y-95200000D01*
X125200000Y-95200000D02*
X129400000Y-95200000D01*
X129400000Y-95200000D02*
X134200000Y-90400000D01*
X134200000Y-90400000D02*
X170000000Y-90400000D01*
X170000000Y-90400000D02*
X171000000Y-91400000D01*
X171000000Y-91400000D02*
X171200000Y-91400000D01*
X171200000Y-91400000D02*
X174600000Y-94800000D01*
X174600000Y-94800000D02*
X174600000Y-99800000D01*
X174600000Y-99800000D02*
X173600000Y-100800000D01*
X173600000Y-100800000D02*
X165300000Y-100800000D01*
X165300000Y-100800000D02*
X162370000Y-103730000D01*
X168000000Y-101600000D02*
X174800000Y-101600000D01*
X174800000Y-101600000D02*
X175600000Y-100800000D01*
X175600000Y-100800000D02*
X175600000Y-93851000D01*
X175600000Y-93851000D02*
X172314000Y-90565000D01*
X174314000Y-117482000D02*
X174314000Y-115914000D01*
X167450000Y-109050000D02*
X167450000Y-106270000D01*
X174314000Y-115914000D02*
X167450000Y-109050000D01*
X157514000Y-117482000D02*
X158518000Y-117482000D01*
X165400000Y-105000000D02*
X166670000Y-103730000D01*
X164200000Y-105000000D02*
X165400000Y-105000000D01*
X163600000Y-105600000D02*
X164200000Y-105000000D01*
X163600000Y-107200000D02*
X163600000Y-105600000D01*
X163400000Y-107400000D02*
X163600000Y-107200000D01*
X163400000Y-112600000D02*
X163400000Y-107400000D01*
X158518000Y-117482000D02*
X163400000Y-112600000D01*
X166670000Y-103730000D02*
X167450000Y-103730000D01*
X165914000Y-126282000D02*
X167518000Y-126282000D01*
X176800000Y-113080000D02*
X169990000Y-106270000D01*
X176800000Y-118200000D02*
X176800000Y-113080000D01*
X175600000Y-119400000D02*
X176800000Y-118200000D01*
X174400000Y-119400000D02*
X175600000Y-119400000D01*
X167518000Y-126282000D02*
X174400000Y-119400000D01*
X165914000Y-108682000D02*
X165914000Y-107486000D01*
X168720000Y-105000000D02*
X169990000Y-103730000D01*
X166600000Y-105000000D02*
X168720000Y-105000000D01*
X166200000Y-105400000D02*
X166600000Y-105000000D01*
X166200000Y-107200000D02*
X166200000Y-105400000D01*
X165914000Y-107486000D02*
X166200000Y-107200000D01*
M02*
