G04 #@! TF.FileFunction,Legend,Bot*
%FSLAX46Y46*%
G04 Gerber Fmt 4.6, Leading zero omitted, Abs format (unit mm)*
G04 Created by KiCad (PCBNEW 4.0.5+dfsg1-4) date Wed Feb 14 20:28:42 2018*
%MOMM*%
%LPD*%
G01*
G04 APERTURE LIST*
%ADD10C,0.100000*%
%ADD11C,0.300000*%
G04 APERTURE END LIST*
D10*
D11*
X158421427Y-90892857D02*
X158921427Y-90892857D01*
X158921427Y-91678571D02*
X158921427Y-90178571D01*
X158207141Y-90178571D01*
X156992856Y-91678571D02*
X156992856Y-90892857D01*
X157064285Y-90750000D01*
X157207142Y-90678571D01*
X157492856Y-90678571D01*
X157635713Y-90750000D01*
X156992856Y-91607143D02*
X157135713Y-91678571D01*
X157492856Y-91678571D01*
X157635713Y-91607143D01*
X157707142Y-91464286D01*
X157707142Y-91321429D01*
X157635713Y-91178571D01*
X157492856Y-91107143D01*
X157135713Y-91107143D01*
X156992856Y-91035714D01*
X155635713Y-91607143D02*
X155778570Y-91678571D01*
X156064284Y-91678571D01*
X156207142Y-91607143D01*
X156278570Y-91535714D01*
X156349999Y-91392857D01*
X156349999Y-90964286D01*
X156278570Y-90821429D01*
X156207142Y-90750000D01*
X156064284Y-90678571D01*
X155778570Y-90678571D01*
X155635713Y-90750000D01*
X154421428Y-91607143D02*
X154564285Y-91678571D01*
X154849999Y-91678571D01*
X154992856Y-91607143D01*
X155064285Y-91464286D01*
X155064285Y-90892857D01*
X154992856Y-90750000D01*
X154849999Y-90678571D01*
X154564285Y-90678571D01*
X154421428Y-90750000D01*
X154349999Y-90892857D01*
X154349999Y-91035714D01*
X155064285Y-91178571D01*
X153492856Y-91678571D02*
X153635714Y-91607143D01*
X153707142Y-91464286D01*
X153707142Y-90178571D01*
X152350000Y-91607143D02*
X152492857Y-91678571D01*
X152778571Y-91678571D01*
X152921428Y-91607143D01*
X152992857Y-91464286D01*
X152992857Y-90892857D01*
X152921428Y-90750000D01*
X152778571Y-90678571D01*
X152492857Y-90678571D01*
X152350000Y-90750000D01*
X152278571Y-90892857D01*
X152278571Y-91035714D01*
X152992857Y-91178571D01*
X151707143Y-91607143D02*
X151564286Y-91678571D01*
X151278571Y-91678571D01*
X151135714Y-91607143D01*
X151064286Y-91464286D01*
X151064286Y-91392857D01*
X151135714Y-91250000D01*
X151278571Y-91178571D01*
X151492857Y-91178571D01*
X151635714Y-91107143D01*
X151707143Y-90964286D01*
X151707143Y-90892857D01*
X151635714Y-90750000D01*
X151492857Y-90678571D01*
X151278571Y-90678571D01*
X151135714Y-90750000D01*
X150492857Y-91607143D02*
X150350000Y-91678571D01*
X150064285Y-91678571D01*
X149921428Y-91607143D01*
X149850000Y-91464286D01*
X149850000Y-91392857D01*
X149921428Y-91250000D01*
X150064285Y-91178571D01*
X150278571Y-91178571D01*
X150421428Y-91107143D01*
X150492857Y-90964286D01*
X150492857Y-90892857D01*
X150421428Y-90750000D01*
X150278571Y-90678571D01*
X150064285Y-90678571D01*
X149921428Y-90750000D01*
X149421428Y-90678571D02*
X148849999Y-90678571D01*
X149207142Y-90178571D02*
X149207142Y-91464286D01*
X149135714Y-91607143D01*
X148992856Y-91678571D01*
X148849999Y-91678571D01*
X147778571Y-91607143D02*
X147921428Y-91678571D01*
X148207142Y-91678571D01*
X148349999Y-91607143D01*
X148421428Y-91464286D01*
X148421428Y-90892857D01*
X148349999Y-90750000D01*
X148207142Y-90678571D01*
X147921428Y-90678571D01*
X147778571Y-90750000D01*
X147707142Y-90892857D01*
X147707142Y-91035714D01*
X148421428Y-91178571D01*
X146421428Y-91607143D02*
X146564285Y-91678571D01*
X146849999Y-91678571D01*
X146992857Y-91607143D01*
X147064285Y-91535714D01*
X147135714Y-91392857D01*
X147135714Y-90964286D01*
X147064285Y-90821429D01*
X146992857Y-90750000D01*
X146849999Y-90678571D01*
X146564285Y-90678571D01*
X146421428Y-90750000D01*
X145778571Y-91678571D02*
X145778571Y-90178571D01*
X145135714Y-91678571D02*
X145135714Y-90892857D01*
X145207143Y-90750000D01*
X145350000Y-90678571D01*
X145564285Y-90678571D01*
X145707143Y-90750000D01*
X145778571Y-90821429D01*
X143350000Y-90321429D02*
X143278571Y-90250000D01*
X143135714Y-90178571D01*
X142778571Y-90178571D01*
X142635714Y-90250000D01*
X142564285Y-90321429D01*
X142492857Y-90464286D01*
X142492857Y-90607143D01*
X142564285Y-90821429D01*
X143421428Y-91678571D01*
X142492857Y-91678571D01*
X141564286Y-90178571D02*
X141421429Y-90178571D01*
X141278572Y-90250000D01*
X141207143Y-90321429D01*
X141135714Y-90464286D01*
X141064286Y-90750000D01*
X141064286Y-91107143D01*
X141135714Y-91392857D01*
X141207143Y-91535714D01*
X141278572Y-91607143D01*
X141421429Y-91678571D01*
X141564286Y-91678571D01*
X141707143Y-91607143D01*
X141778572Y-91535714D01*
X141850000Y-91392857D01*
X141921429Y-91107143D01*
X141921429Y-90750000D01*
X141850000Y-90464286D01*
X141778572Y-90321429D01*
X141707143Y-90250000D01*
X141564286Y-90178571D01*
X139635715Y-91678571D02*
X140492858Y-91678571D01*
X140064286Y-91678571D02*
X140064286Y-90178571D01*
X140207143Y-90392857D01*
X140350001Y-90535714D01*
X140492858Y-90607143D01*
X138778572Y-90821429D02*
X138921430Y-90750000D01*
X138992858Y-90678571D01*
X139064287Y-90535714D01*
X139064287Y-90464286D01*
X138992858Y-90321429D01*
X138921430Y-90250000D01*
X138778572Y-90178571D01*
X138492858Y-90178571D01*
X138350001Y-90250000D01*
X138278572Y-90321429D01*
X138207144Y-90464286D01*
X138207144Y-90535714D01*
X138278572Y-90678571D01*
X138350001Y-90750000D01*
X138492858Y-90821429D01*
X138778572Y-90821429D01*
X138921430Y-90892857D01*
X138992858Y-90964286D01*
X139064287Y-91107143D01*
X139064287Y-91392857D01*
X138992858Y-91535714D01*
X138921430Y-91607143D01*
X138778572Y-91678571D01*
X138492858Y-91678571D01*
X138350001Y-91607143D01*
X138278572Y-91535714D01*
X138207144Y-91392857D01*
X138207144Y-91107143D01*
X138278572Y-90964286D01*
X138350001Y-90892857D01*
X138492858Y-90821429D01*
M02*
