G04 #@! TF.FileFunction,Copper,L2,Bot,Signal*
%FSLAX46Y46*%
G04 Gerber Fmt 4.6, Leading zero omitted, Abs format (unit mm)*
G04 Created by KiCad (PCBNEW 4.0.5+dfsg1-4) date Wed Feb 14 20:28:42 2018*
%MOMM*%
%LPD*%
G01*
G04 APERTURE LIST*
%ADD10C,0.100000*%
%ADD11C,1.600000*%
%ADD12C,2.000000*%
%ADD13C,1.800000*%
%ADD14C,0.600000*%
%ADD15C,0.250000*%
%ADD16C,0.254000*%
G04 APERTURE END LIST*
D10*
D11*
X120514000Y-90765000D03*
X125086000Y-90765000D03*
D12*
X126483000Y-93305000D03*
X118990000Y-93178000D03*
D13*
X146102000Y-131600000D03*
X139498000Y-131600000D03*
X157302000Y-131600000D03*
X150698000Y-131600000D03*
D11*
X172314000Y-90565000D03*
X176886000Y-90565000D03*
D12*
X178283000Y-93105000D03*
X170790000Y-92978000D03*
D11*
X130886000Y-117191000D03*
X126314000Y-117191000D03*
X130886000Y-108682000D03*
X126314000Y-108682000D03*
X162086000Y-125991000D03*
X157514000Y-125991000D03*
X162086000Y-117482000D03*
X157514000Y-117482000D03*
X170486000Y-134791000D03*
X165914000Y-134791000D03*
X170486000Y-126282000D03*
X165914000Y-126282000D03*
X142090000Y-96530000D03*
X144630000Y-96530000D03*
X147170000Y-96530000D03*
X149710000Y-96530000D03*
X152250000Y-96530000D03*
X154790000Y-96530000D03*
X157330000Y-96530000D03*
X159870000Y-96530000D03*
X162410000Y-96530000D03*
X164950000Y-96530000D03*
X167490000Y-96530000D03*
X170030000Y-96530000D03*
X172570000Y-96530000D03*
X142090000Y-99070000D03*
X172570000Y-99070000D03*
X170030000Y-99070000D03*
X167490000Y-99070000D03*
X164950000Y-99070000D03*
X162410000Y-99070000D03*
X159870000Y-99070000D03*
X157330000Y-99070000D03*
X154790000Y-99070000D03*
X152250000Y-99070000D03*
X149710000Y-99070000D03*
X147170000Y-99070000D03*
X144630000Y-99070000D03*
X178886000Y-125991000D03*
X174314000Y-125991000D03*
X178886000Y-117482000D03*
X174314000Y-117482000D03*
X139286000Y-125991000D03*
X134714000Y-125991000D03*
X139286000Y-117482000D03*
X134714000Y-117482000D03*
X170486000Y-117191000D03*
X165914000Y-117191000D03*
X170486000Y-108682000D03*
X165914000Y-108682000D03*
X122486000Y-125991000D03*
X117914000Y-125991000D03*
X122486000Y-117482000D03*
X117914000Y-117482000D03*
X130886000Y-134791000D03*
X126314000Y-134791000D03*
X130886000Y-126282000D03*
X126314000Y-126282000D03*
X147130000Y-106270000D03*
X147130000Y-103730000D03*
X144590000Y-106270000D03*
X142050000Y-106270000D03*
X139510000Y-106270000D03*
X136970000Y-106270000D03*
X134430000Y-106270000D03*
X131890000Y-106270000D03*
X129350000Y-106270000D03*
X126810000Y-106270000D03*
X124270000Y-106270000D03*
X144590000Y-103730000D03*
X142050000Y-103730000D03*
X139510000Y-103730000D03*
X136970000Y-103730000D03*
X134430000Y-103730000D03*
X131890000Y-103730000D03*
X129350000Y-103730000D03*
X126810000Y-103730000D03*
X124270000Y-103730000D03*
X149670000Y-106270000D03*
X149670000Y-103730000D03*
X152210000Y-106270000D03*
X152210000Y-103730000D03*
X154750000Y-106270000D03*
X154750000Y-103730000D03*
X157290000Y-106270000D03*
X157290000Y-103730000D03*
X159830000Y-106270000D03*
X159830000Y-103730000D03*
X162370000Y-106270000D03*
X162370000Y-103730000D03*
X164910000Y-106270000D03*
X164910000Y-103730000D03*
X167450000Y-106270000D03*
X167450000Y-103730000D03*
X169990000Y-106270000D03*
X169990000Y-103730000D03*
X172530000Y-106270000D03*
X172530000Y-103730000D03*
D14*
X151800000Y-102000000D03*
X132000000Y-113600000D03*
X168000000Y-101600000D03*
D15*
X142090000Y-99070000D02*
X142270000Y-99070000D01*
X142270000Y-99070000D02*
X143800000Y-100600000D01*
X143800000Y-100600000D02*
X151620000Y-100600000D01*
X151620000Y-100600000D02*
X154750000Y-103730000D01*
X145800000Y-102000000D02*
X144590000Y-103210000D01*
X151800000Y-102000000D02*
X145800000Y-102000000D01*
X144590000Y-103210000D02*
X144590000Y-103730000D01*
X144630000Y-99070000D02*
X144630000Y-98970000D01*
X144630000Y-98970000D02*
X145800000Y-97800000D01*
X145800000Y-97800000D02*
X153000000Y-97800000D01*
X153000000Y-97800000D02*
X153600000Y-98400000D01*
X153600000Y-98400000D02*
X153600000Y-100200000D01*
X153600000Y-100200000D02*
X156000000Y-102600000D01*
X156000000Y-102600000D02*
X156000000Y-104400000D01*
X156000000Y-104400000D02*
X155400000Y-105000000D01*
X155400000Y-105000000D02*
X153480000Y-105000000D01*
X153480000Y-105000000D02*
X152210000Y-103730000D01*
X133200000Y-105040000D02*
X131890000Y-103730000D01*
X133200000Y-112400000D02*
X133200000Y-105040000D01*
X132000000Y-113600000D02*
X133200000Y-112400000D01*
X162230000Y-106270000D02*
X162470000Y-106270000D01*
X164910000Y-106270000D02*
X164910000Y-106090000D01*
X164910000Y-106090000D02*
X166200000Y-104800000D01*
X166200000Y-104800000D02*
X166200000Y-102400000D01*
X166200000Y-102400000D02*
X167000000Y-101600000D01*
X167000000Y-101600000D02*
X168000000Y-101600000D01*
D16*
G36*
X118800000Y-88710000D02*
X178130069Y-88710000D01*
X178414419Y-88766561D01*
X179997700Y-90205907D01*
X180090000Y-90669931D01*
X180090000Y-116712975D01*
X179893745Y-116653861D01*
X179065605Y-117482000D01*
X179893745Y-118310139D01*
X180090000Y-118251025D01*
X180090000Y-125165934D01*
X179699923Y-124775176D01*
X179172691Y-124556250D01*
X178601813Y-124555752D01*
X178074200Y-124773757D01*
X177670176Y-125177077D01*
X177451250Y-125704309D01*
X177450752Y-126275187D01*
X177668757Y-126802800D01*
X178072077Y-127206824D01*
X178599309Y-127425750D01*
X179170187Y-127426248D01*
X179697800Y-127208243D01*
X180090000Y-126816726D01*
X180090000Y-132710118D01*
X180013683Y-133006711D01*
X177626299Y-135394095D01*
X176949913Y-135490000D01*
X171749544Y-135490000D01*
X171920750Y-135077691D01*
X171921248Y-134506813D01*
X171703243Y-133979200D01*
X171299923Y-133575176D01*
X170772691Y-133356250D01*
X170201813Y-133355752D01*
X169674200Y-133573757D01*
X169270176Y-133977077D01*
X169051250Y-134504309D01*
X169050752Y-135075187D01*
X169222149Y-135490000D01*
X167177544Y-135490000D01*
X167348750Y-135077691D01*
X167349248Y-134506813D01*
X167131243Y-133979200D01*
X166727923Y-133575176D01*
X166200691Y-133356250D01*
X165629813Y-133355752D01*
X165102200Y-133573757D01*
X164698176Y-133977077D01*
X164479250Y-134504309D01*
X164478752Y-135075187D01*
X164650149Y-135490000D01*
X132149544Y-135490000D01*
X132320750Y-135077691D01*
X132321248Y-134506813D01*
X132103243Y-133979200D01*
X131699923Y-133575176D01*
X131172691Y-133356250D01*
X130601813Y-133355752D01*
X130074200Y-133573757D01*
X129670176Y-133977077D01*
X129451250Y-134504309D01*
X129450752Y-135075187D01*
X129622149Y-135490000D01*
X127577544Y-135490000D01*
X127748750Y-135077691D01*
X127749248Y-134506813D01*
X127531243Y-133979200D01*
X127127923Y-133575176D01*
X126600691Y-133356250D01*
X126029813Y-133355752D01*
X125502200Y-133573757D01*
X125098176Y-133977077D01*
X124879250Y-134504309D01*
X124878752Y-135075187D01*
X125050149Y-135490000D01*
X119489882Y-135490000D01*
X119193289Y-135413683D01*
X116805905Y-133026299D01*
X116756826Y-132680159D01*
X138597446Y-132680159D01*
X138683852Y-132936643D01*
X139257336Y-133146458D01*
X139867460Y-133120839D01*
X140312148Y-132936643D01*
X140398554Y-132680159D01*
X139498000Y-131779605D01*
X138597446Y-132680159D01*
X116756826Y-132680159D01*
X116710000Y-132349913D01*
X116710000Y-131359336D01*
X137951542Y-131359336D01*
X137977161Y-131969460D01*
X138161357Y-132414148D01*
X138417841Y-132500554D01*
X139318395Y-131600000D01*
X139677605Y-131600000D01*
X140578159Y-132500554D01*
X140834643Y-132414148D01*
X141021289Y-131903991D01*
X144566735Y-131903991D01*
X144799932Y-132468371D01*
X145231357Y-132900551D01*
X145795330Y-133134733D01*
X146405991Y-133135265D01*
X146970371Y-132902068D01*
X147192668Y-132680159D01*
X149797446Y-132680159D01*
X149883852Y-132936643D01*
X150457336Y-133146458D01*
X151067460Y-133120839D01*
X151512148Y-132936643D01*
X151598554Y-132680159D01*
X150698000Y-131779605D01*
X149797446Y-132680159D01*
X147192668Y-132680159D01*
X147402551Y-132470643D01*
X147636733Y-131906670D01*
X147637209Y-131359336D01*
X149151542Y-131359336D01*
X149177161Y-131969460D01*
X149361357Y-132414148D01*
X149617841Y-132500554D01*
X150518395Y-131600000D01*
X150877605Y-131600000D01*
X151778159Y-132500554D01*
X152034643Y-132414148D01*
X152221289Y-131903991D01*
X155766735Y-131903991D01*
X155999932Y-132468371D01*
X156431357Y-132900551D01*
X156995330Y-133134733D01*
X157605991Y-133135265D01*
X158170371Y-132902068D01*
X158602551Y-132470643D01*
X158836733Y-131906670D01*
X158837265Y-131296009D01*
X158604068Y-130731629D01*
X158172643Y-130299449D01*
X157608670Y-130065267D01*
X156998009Y-130064735D01*
X156433629Y-130297932D01*
X156001449Y-130729357D01*
X155767267Y-131293330D01*
X155766735Y-131903991D01*
X152221289Y-131903991D01*
X152244458Y-131840664D01*
X152218839Y-131230540D01*
X152034643Y-130785852D01*
X151778159Y-130699446D01*
X150877605Y-131600000D01*
X150518395Y-131600000D01*
X149617841Y-130699446D01*
X149361357Y-130785852D01*
X149151542Y-131359336D01*
X147637209Y-131359336D01*
X147637265Y-131296009D01*
X147404068Y-130731629D01*
X147192650Y-130519841D01*
X149797446Y-130519841D01*
X150698000Y-131420395D01*
X151598554Y-130519841D01*
X151512148Y-130263357D01*
X150938664Y-130053542D01*
X150328540Y-130079161D01*
X149883852Y-130263357D01*
X149797446Y-130519841D01*
X147192650Y-130519841D01*
X146972643Y-130299449D01*
X146408670Y-130065267D01*
X145798009Y-130064735D01*
X145233629Y-130297932D01*
X144801449Y-130729357D01*
X144567267Y-131293330D01*
X144566735Y-131903991D01*
X141021289Y-131903991D01*
X141044458Y-131840664D01*
X141018839Y-131230540D01*
X140834643Y-130785852D01*
X140578159Y-130699446D01*
X139677605Y-131600000D01*
X139318395Y-131600000D01*
X138417841Y-130699446D01*
X138161357Y-130785852D01*
X137951542Y-131359336D01*
X116710000Y-131359336D01*
X116710000Y-130519841D01*
X138597446Y-130519841D01*
X139498000Y-131420395D01*
X140398554Y-130519841D01*
X140312148Y-130263357D01*
X139738664Y-130053542D01*
X139128540Y-130079161D01*
X138683852Y-130263357D01*
X138597446Y-130519841D01*
X116710000Y-130519841D01*
X116710000Y-126816066D01*
X117100077Y-127206824D01*
X117627309Y-127425750D01*
X118198187Y-127426248D01*
X118725800Y-127208243D01*
X119129824Y-126804923D01*
X119348750Y-126277691D01*
X119348752Y-126275187D01*
X121050752Y-126275187D01*
X121268757Y-126802800D01*
X121672077Y-127206824D01*
X122199309Y-127425750D01*
X122770187Y-127426248D01*
X123297800Y-127208243D01*
X123701824Y-126804923D01*
X123800955Y-126566187D01*
X124878752Y-126566187D01*
X125096757Y-127093800D01*
X125500077Y-127497824D01*
X126027309Y-127716750D01*
X126598187Y-127717248D01*
X127125800Y-127499243D01*
X127335663Y-127289745D01*
X130057861Y-127289745D01*
X130131995Y-127535864D01*
X130669223Y-127728965D01*
X131239454Y-127701778D01*
X131640005Y-127535864D01*
X131714139Y-127289745D01*
X130886000Y-126461605D01*
X130057861Y-127289745D01*
X127335663Y-127289745D01*
X127529824Y-127095923D01*
X127748750Y-126568691D01*
X127749189Y-126065223D01*
X129439035Y-126065223D01*
X129466222Y-126635454D01*
X129632136Y-127036005D01*
X129878255Y-127110139D01*
X130706395Y-126282000D01*
X131065605Y-126282000D01*
X131893745Y-127110139D01*
X132139864Y-127036005D01*
X132332965Y-126498777D01*
X132322305Y-126275187D01*
X133278752Y-126275187D01*
X133496757Y-126802800D01*
X133900077Y-127206824D01*
X134427309Y-127425750D01*
X134998187Y-127426248D01*
X135525800Y-127208243D01*
X135929824Y-126804923D01*
X136148750Y-126277691D01*
X136148752Y-126275187D01*
X137850752Y-126275187D01*
X138068757Y-126802800D01*
X138472077Y-127206824D01*
X138999309Y-127425750D01*
X139570187Y-127426248D01*
X140097800Y-127208243D01*
X140501824Y-126804923D01*
X140720750Y-126277691D01*
X140720752Y-126275187D01*
X156078752Y-126275187D01*
X156296757Y-126802800D01*
X156700077Y-127206824D01*
X157227309Y-127425750D01*
X157798187Y-127426248D01*
X158325800Y-127208243D01*
X158729824Y-126804923D01*
X158948750Y-126277691D01*
X158948752Y-126275187D01*
X160650752Y-126275187D01*
X160868757Y-126802800D01*
X161272077Y-127206824D01*
X161799309Y-127425750D01*
X162370187Y-127426248D01*
X162897800Y-127208243D01*
X163301824Y-126804923D01*
X163400955Y-126566187D01*
X164478752Y-126566187D01*
X164696757Y-127093800D01*
X165100077Y-127497824D01*
X165627309Y-127716750D01*
X166198187Y-127717248D01*
X166725800Y-127499243D01*
X166935663Y-127289745D01*
X169657861Y-127289745D01*
X169731995Y-127535864D01*
X170269223Y-127728965D01*
X170839454Y-127701778D01*
X171240005Y-127535864D01*
X171314139Y-127289745D01*
X170486000Y-126461605D01*
X169657861Y-127289745D01*
X166935663Y-127289745D01*
X167129824Y-127095923D01*
X167348750Y-126568691D01*
X167349189Y-126065223D01*
X169039035Y-126065223D01*
X169066222Y-126635454D01*
X169232136Y-127036005D01*
X169478255Y-127110139D01*
X170306395Y-126282000D01*
X170665605Y-126282000D01*
X171493745Y-127110139D01*
X171739864Y-127036005D01*
X171932965Y-126498777D01*
X171922305Y-126275187D01*
X172878752Y-126275187D01*
X173096757Y-126802800D01*
X173500077Y-127206824D01*
X174027309Y-127425750D01*
X174598187Y-127426248D01*
X175125800Y-127208243D01*
X175529824Y-126804923D01*
X175748750Y-126277691D01*
X175749248Y-125706813D01*
X175531243Y-125179200D01*
X175127923Y-124775176D01*
X174600691Y-124556250D01*
X174029813Y-124555752D01*
X173502200Y-124773757D01*
X173098176Y-125177077D01*
X172879250Y-125704309D01*
X172878752Y-126275187D01*
X171922305Y-126275187D01*
X171905778Y-125928546D01*
X171739864Y-125527995D01*
X171493745Y-125453861D01*
X170665605Y-126282000D01*
X170306395Y-126282000D01*
X169478255Y-125453861D01*
X169232136Y-125527995D01*
X169039035Y-126065223D01*
X167349189Y-126065223D01*
X167349248Y-125997813D01*
X167131243Y-125470200D01*
X166935640Y-125274255D01*
X169657861Y-125274255D01*
X170486000Y-126102395D01*
X171314139Y-125274255D01*
X171240005Y-125028136D01*
X170702777Y-124835035D01*
X170132546Y-124862222D01*
X169731995Y-125028136D01*
X169657861Y-125274255D01*
X166935640Y-125274255D01*
X166727923Y-125066176D01*
X166200691Y-124847250D01*
X165629813Y-124846752D01*
X165102200Y-125064757D01*
X164698176Y-125468077D01*
X164479250Y-125995309D01*
X164478752Y-126566187D01*
X163400955Y-126566187D01*
X163520750Y-126277691D01*
X163521248Y-125706813D01*
X163303243Y-125179200D01*
X162899923Y-124775176D01*
X162372691Y-124556250D01*
X161801813Y-124555752D01*
X161274200Y-124773757D01*
X160870176Y-125177077D01*
X160651250Y-125704309D01*
X160650752Y-126275187D01*
X158948752Y-126275187D01*
X158949248Y-125706813D01*
X158731243Y-125179200D01*
X158327923Y-124775176D01*
X157800691Y-124556250D01*
X157229813Y-124555752D01*
X156702200Y-124773757D01*
X156298176Y-125177077D01*
X156079250Y-125704309D01*
X156078752Y-126275187D01*
X140720752Y-126275187D01*
X140721248Y-125706813D01*
X140503243Y-125179200D01*
X140099923Y-124775176D01*
X139572691Y-124556250D01*
X139001813Y-124555752D01*
X138474200Y-124773757D01*
X138070176Y-125177077D01*
X137851250Y-125704309D01*
X137850752Y-126275187D01*
X136148752Y-126275187D01*
X136149248Y-125706813D01*
X135931243Y-125179200D01*
X135527923Y-124775176D01*
X135000691Y-124556250D01*
X134429813Y-124555752D01*
X133902200Y-124773757D01*
X133498176Y-125177077D01*
X133279250Y-125704309D01*
X133278752Y-126275187D01*
X132322305Y-126275187D01*
X132305778Y-125928546D01*
X132139864Y-125527995D01*
X131893745Y-125453861D01*
X131065605Y-126282000D01*
X130706395Y-126282000D01*
X129878255Y-125453861D01*
X129632136Y-125527995D01*
X129439035Y-126065223D01*
X127749189Y-126065223D01*
X127749248Y-125997813D01*
X127531243Y-125470200D01*
X127335640Y-125274255D01*
X130057861Y-125274255D01*
X130886000Y-126102395D01*
X131714139Y-125274255D01*
X131640005Y-125028136D01*
X131102777Y-124835035D01*
X130532546Y-124862222D01*
X130131995Y-125028136D01*
X130057861Y-125274255D01*
X127335640Y-125274255D01*
X127127923Y-125066176D01*
X126600691Y-124847250D01*
X126029813Y-124846752D01*
X125502200Y-125064757D01*
X125098176Y-125468077D01*
X124879250Y-125995309D01*
X124878752Y-126566187D01*
X123800955Y-126566187D01*
X123920750Y-126277691D01*
X123921248Y-125706813D01*
X123703243Y-125179200D01*
X123299923Y-124775176D01*
X122772691Y-124556250D01*
X122201813Y-124555752D01*
X121674200Y-124773757D01*
X121270176Y-125177077D01*
X121051250Y-125704309D01*
X121050752Y-126275187D01*
X119348752Y-126275187D01*
X119349248Y-125706813D01*
X119131243Y-125179200D01*
X118727923Y-124775176D01*
X118200691Y-124556250D01*
X117629813Y-124555752D01*
X117102200Y-124773757D01*
X116710000Y-125165274D01*
X116710000Y-118307066D01*
X117100077Y-118697824D01*
X117627309Y-118916750D01*
X118198187Y-118917248D01*
X118725800Y-118699243D01*
X118935663Y-118489745D01*
X121657861Y-118489745D01*
X121731995Y-118735864D01*
X122269223Y-118928965D01*
X122839454Y-118901778D01*
X123240005Y-118735864D01*
X123314139Y-118489745D01*
X122486000Y-117661605D01*
X121657861Y-118489745D01*
X118935663Y-118489745D01*
X119129824Y-118295923D01*
X119348750Y-117768691D01*
X119349189Y-117265223D01*
X121039035Y-117265223D01*
X121066222Y-117835454D01*
X121232136Y-118236005D01*
X121478255Y-118310139D01*
X122306395Y-117482000D01*
X122665605Y-117482000D01*
X123493745Y-118310139D01*
X123739864Y-118236005D01*
X123932965Y-117698777D01*
X123922305Y-117475187D01*
X124878752Y-117475187D01*
X125096757Y-118002800D01*
X125500077Y-118406824D01*
X126027309Y-118625750D01*
X126598187Y-118626248D01*
X127125800Y-118408243D01*
X127529824Y-118004923D01*
X127748750Y-117477691D01*
X127748752Y-117475187D01*
X129450752Y-117475187D01*
X129668757Y-118002800D01*
X130072077Y-118406824D01*
X130599309Y-118625750D01*
X131170187Y-118626248D01*
X131697800Y-118408243D01*
X132101824Y-118004923D01*
X132200955Y-117766187D01*
X133278752Y-117766187D01*
X133496757Y-118293800D01*
X133900077Y-118697824D01*
X134427309Y-118916750D01*
X134998187Y-118917248D01*
X135525800Y-118699243D01*
X135735663Y-118489745D01*
X138457861Y-118489745D01*
X138531995Y-118735864D01*
X139069223Y-118928965D01*
X139639454Y-118901778D01*
X140040005Y-118735864D01*
X140114139Y-118489745D01*
X139286000Y-117661605D01*
X138457861Y-118489745D01*
X135735663Y-118489745D01*
X135929824Y-118295923D01*
X136148750Y-117768691D01*
X136149189Y-117265223D01*
X137839035Y-117265223D01*
X137866222Y-117835454D01*
X138032136Y-118236005D01*
X138278255Y-118310139D01*
X139106395Y-117482000D01*
X139465605Y-117482000D01*
X140293745Y-118310139D01*
X140539864Y-118236005D01*
X140708735Y-117766187D01*
X156078752Y-117766187D01*
X156296757Y-118293800D01*
X156700077Y-118697824D01*
X157227309Y-118916750D01*
X157798187Y-118917248D01*
X158325800Y-118699243D01*
X158535663Y-118489745D01*
X161257861Y-118489745D01*
X161331995Y-118735864D01*
X161869223Y-118928965D01*
X162439454Y-118901778D01*
X162840005Y-118735864D01*
X162914139Y-118489745D01*
X162086000Y-117661605D01*
X161257861Y-118489745D01*
X158535663Y-118489745D01*
X158729824Y-118295923D01*
X158948750Y-117768691D01*
X158949189Y-117265223D01*
X160639035Y-117265223D01*
X160666222Y-117835454D01*
X160832136Y-118236005D01*
X161078255Y-118310139D01*
X161906395Y-117482000D01*
X162265605Y-117482000D01*
X163093745Y-118310139D01*
X163339864Y-118236005D01*
X163532965Y-117698777D01*
X163522305Y-117475187D01*
X164478752Y-117475187D01*
X164696757Y-118002800D01*
X165100077Y-118406824D01*
X165627309Y-118625750D01*
X166198187Y-118626248D01*
X166725800Y-118408243D01*
X167129824Y-118004923D01*
X167348750Y-117477691D01*
X167348752Y-117475187D01*
X169050752Y-117475187D01*
X169268757Y-118002800D01*
X169672077Y-118406824D01*
X170199309Y-118625750D01*
X170770187Y-118626248D01*
X171297800Y-118408243D01*
X171701824Y-118004923D01*
X171800955Y-117766187D01*
X172878752Y-117766187D01*
X173096757Y-118293800D01*
X173500077Y-118697824D01*
X174027309Y-118916750D01*
X174598187Y-118917248D01*
X175125800Y-118699243D01*
X175335663Y-118489745D01*
X178057861Y-118489745D01*
X178131995Y-118735864D01*
X178669223Y-118928965D01*
X179239454Y-118901778D01*
X179640005Y-118735864D01*
X179714139Y-118489745D01*
X178886000Y-117661605D01*
X178057861Y-118489745D01*
X175335663Y-118489745D01*
X175529824Y-118295923D01*
X175748750Y-117768691D01*
X175749189Y-117265223D01*
X177439035Y-117265223D01*
X177466222Y-117835454D01*
X177632136Y-118236005D01*
X177878255Y-118310139D01*
X178706395Y-117482000D01*
X177878255Y-116653861D01*
X177632136Y-116727995D01*
X177439035Y-117265223D01*
X175749189Y-117265223D01*
X175749248Y-117197813D01*
X175531243Y-116670200D01*
X175335640Y-116474255D01*
X178057861Y-116474255D01*
X178886000Y-117302395D01*
X179714139Y-116474255D01*
X179640005Y-116228136D01*
X179102777Y-116035035D01*
X178532546Y-116062222D01*
X178131995Y-116228136D01*
X178057861Y-116474255D01*
X175335640Y-116474255D01*
X175127923Y-116266176D01*
X174600691Y-116047250D01*
X174029813Y-116046752D01*
X173502200Y-116264757D01*
X173098176Y-116668077D01*
X172879250Y-117195309D01*
X172878752Y-117766187D01*
X171800955Y-117766187D01*
X171920750Y-117477691D01*
X171921248Y-116906813D01*
X171703243Y-116379200D01*
X171299923Y-115975176D01*
X170772691Y-115756250D01*
X170201813Y-115755752D01*
X169674200Y-115973757D01*
X169270176Y-116377077D01*
X169051250Y-116904309D01*
X169050752Y-117475187D01*
X167348752Y-117475187D01*
X167349248Y-116906813D01*
X167131243Y-116379200D01*
X166727923Y-115975176D01*
X166200691Y-115756250D01*
X165629813Y-115755752D01*
X165102200Y-115973757D01*
X164698176Y-116377077D01*
X164479250Y-116904309D01*
X164478752Y-117475187D01*
X163522305Y-117475187D01*
X163505778Y-117128546D01*
X163339864Y-116727995D01*
X163093745Y-116653861D01*
X162265605Y-117482000D01*
X161906395Y-117482000D01*
X161078255Y-116653861D01*
X160832136Y-116727995D01*
X160639035Y-117265223D01*
X158949189Y-117265223D01*
X158949248Y-117197813D01*
X158731243Y-116670200D01*
X158535640Y-116474255D01*
X161257861Y-116474255D01*
X162086000Y-117302395D01*
X162914139Y-116474255D01*
X162840005Y-116228136D01*
X162302777Y-116035035D01*
X161732546Y-116062222D01*
X161331995Y-116228136D01*
X161257861Y-116474255D01*
X158535640Y-116474255D01*
X158327923Y-116266176D01*
X157800691Y-116047250D01*
X157229813Y-116046752D01*
X156702200Y-116264757D01*
X156298176Y-116668077D01*
X156079250Y-117195309D01*
X156078752Y-117766187D01*
X140708735Y-117766187D01*
X140732965Y-117698777D01*
X140705778Y-117128546D01*
X140539864Y-116727995D01*
X140293745Y-116653861D01*
X139465605Y-117482000D01*
X139106395Y-117482000D01*
X138278255Y-116653861D01*
X138032136Y-116727995D01*
X137839035Y-117265223D01*
X136149189Y-117265223D01*
X136149248Y-117197813D01*
X135931243Y-116670200D01*
X135735640Y-116474255D01*
X138457861Y-116474255D01*
X139286000Y-117302395D01*
X140114139Y-116474255D01*
X140040005Y-116228136D01*
X139502777Y-116035035D01*
X138932546Y-116062222D01*
X138531995Y-116228136D01*
X138457861Y-116474255D01*
X135735640Y-116474255D01*
X135527923Y-116266176D01*
X135000691Y-116047250D01*
X134429813Y-116046752D01*
X133902200Y-116264757D01*
X133498176Y-116668077D01*
X133279250Y-117195309D01*
X133278752Y-117766187D01*
X132200955Y-117766187D01*
X132320750Y-117477691D01*
X132321248Y-116906813D01*
X132103243Y-116379200D01*
X131699923Y-115975176D01*
X131172691Y-115756250D01*
X130601813Y-115755752D01*
X130074200Y-115973757D01*
X129670176Y-116377077D01*
X129451250Y-116904309D01*
X129450752Y-117475187D01*
X127748752Y-117475187D01*
X127749248Y-116906813D01*
X127531243Y-116379200D01*
X127127923Y-115975176D01*
X126600691Y-115756250D01*
X126029813Y-115755752D01*
X125502200Y-115973757D01*
X125098176Y-116377077D01*
X124879250Y-116904309D01*
X124878752Y-117475187D01*
X123922305Y-117475187D01*
X123905778Y-117128546D01*
X123739864Y-116727995D01*
X123493745Y-116653861D01*
X122665605Y-117482000D01*
X122306395Y-117482000D01*
X121478255Y-116653861D01*
X121232136Y-116727995D01*
X121039035Y-117265223D01*
X119349189Y-117265223D01*
X119349248Y-117197813D01*
X119131243Y-116670200D01*
X118935640Y-116474255D01*
X121657861Y-116474255D01*
X122486000Y-117302395D01*
X123314139Y-116474255D01*
X123240005Y-116228136D01*
X122702777Y-116035035D01*
X122132546Y-116062222D01*
X121731995Y-116228136D01*
X121657861Y-116474255D01*
X118935640Y-116474255D01*
X118727923Y-116266176D01*
X118200691Y-116047250D01*
X117629813Y-116046752D01*
X117102200Y-116264757D01*
X116710000Y-116656274D01*
X116710000Y-104014187D01*
X122834752Y-104014187D01*
X123052757Y-104541800D01*
X123456077Y-104945824D01*
X123586215Y-104999862D01*
X123458200Y-105052757D01*
X123054176Y-105456077D01*
X122835250Y-105983309D01*
X122834752Y-106554187D01*
X123052757Y-107081800D01*
X123456077Y-107485824D01*
X123983309Y-107704750D01*
X124554187Y-107705248D01*
X125081800Y-107487243D01*
X125485824Y-107083923D01*
X125539862Y-106953785D01*
X125592757Y-107081800D01*
X125836966Y-107326435D01*
X125502200Y-107464757D01*
X125098176Y-107868077D01*
X124879250Y-108395309D01*
X124878752Y-108966187D01*
X125096757Y-109493800D01*
X125500077Y-109897824D01*
X126027309Y-110116750D01*
X126598187Y-110117248D01*
X127125800Y-109899243D01*
X127335663Y-109689745D01*
X130057861Y-109689745D01*
X130131995Y-109935864D01*
X130669223Y-110128965D01*
X131239454Y-110101778D01*
X131640005Y-109935864D01*
X131714139Y-109689745D01*
X130886000Y-108861605D01*
X130057861Y-109689745D01*
X127335663Y-109689745D01*
X127529824Y-109495923D01*
X127748750Y-108968691D01*
X127749189Y-108465223D01*
X129439035Y-108465223D01*
X129466222Y-109035454D01*
X129632136Y-109436005D01*
X129878255Y-109510139D01*
X130706395Y-108682000D01*
X129878255Y-107853861D01*
X129632136Y-107927995D01*
X129439035Y-108465223D01*
X127749189Y-108465223D01*
X127749248Y-108397813D01*
X127531243Y-107870200D01*
X127287034Y-107625565D01*
X127621800Y-107487243D01*
X128025824Y-107083923D01*
X128079862Y-106953785D01*
X128132757Y-107081800D01*
X128536077Y-107485824D01*
X129063309Y-107704750D01*
X129634187Y-107705248D01*
X130107424Y-107509711D01*
X130057861Y-107674255D01*
X130886000Y-108502395D01*
X130900142Y-108488252D01*
X131079748Y-108667858D01*
X131065605Y-108682000D01*
X131893745Y-109510139D01*
X132139864Y-109436005D01*
X132332965Y-108898777D01*
X132305778Y-108328546D01*
X132139864Y-107927995D01*
X131893747Y-107853861D01*
X132008622Y-107738986D01*
X131974710Y-107705074D01*
X132174187Y-107705248D01*
X132440000Y-107595416D01*
X132440000Y-112085198D01*
X131860320Y-112664878D01*
X131814833Y-112664838D01*
X131471057Y-112806883D01*
X131207808Y-113069673D01*
X131065162Y-113413201D01*
X131064838Y-113785167D01*
X131206883Y-114128943D01*
X131469673Y-114392192D01*
X131813201Y-114534838D01*
X132185167Y-114535162D01*
X132528943Y-114393117D01*
X132792192Y-114130327D01*
X132934838Y-113786799D01*
X132934879Y-113739923D01*
X133737401Y-112937401D01*
X133902148Y-112690840D01*
X133960000Y-112400000D01*
X133960000Y-107628633D01*
X134143309Y-107704750D01*
X134714187Y-107705248D01*
X135241800Y-107487243D01*
X135645824Y-107083923D01*
X135699862Y-106953785D01*
X135752757Y-107081800D01*
X136156077Y-107485824D01*
X136683309Y-107704750D01*
X137254187Y-107705248D01*
X137781800Y-107487243D01*
X138185824Y-107083923D01*
X138239862Y-106953785D01*
X138292757Y-107081800D01*
X138696077Y-107485824D01*
X139223309Y-107704750D01*
X139794187Y-107705248D01*
X140321800Y-107487243D01*
X140725824Y-107083923D01*
X140779862Y-106953785D01*
X140832757Y-107081800D01*
X141236077Y-107485824D01*
X141763309Y-107704750D01*
X142334187Y-107705248D01*
X142861800Y-107487243D01*
X143265824Y-107083923D01*
X143319862Y-106953785D01*
X143372757Y-107081800D01*
X143776077Y-107485824D01*
X144303309Y-107704750D01*
X144874187Y-107705248D01*
X145401800Y-107487243D01*
X145805824Y-107083923D01*
X145859862Y-106953785D01*
X145912757Y-107081800D01*
X146316077Y-107485824D01*
X146843309Y-107704750D01*
X147414187Y-107705248D01*
X147941800Y-107487243D01*
X148345824Y-107083923D01*
X148399862Y-106953785D01*
X148452757Y-107081800D01*
X148856077Y-107485824D01*
X149383309Y-107704750D01*
X149954187Y-107705248D01*
X150481800Y-107487243D01*
X150885824Y-107083923D01*
X150939862Y-106953785D01*
X150992757Y-107081800D01*
X151396077Y-107485824D01*
X151923309Y-107704750D01*
X152494187Y-107705248D01*
X153021800Y-107487243D01*
X153425824Y-107083923D01*
X153479862Y-106953785D01*
X153532757Y-107081800D01*
X153936077Y-107485824D01*
X154463309Y-107704750D01*
X155034187Y-107705248D01*
X155561800Y-107487243D01*
X155965824Y-107083923D01*
X156019862Y-106953785D01*
X156072757Y-107081800D01*
X156476077Y-107485824D01*
X157003309Y-107704750D01*
X157574187Y-107705248D01*
X158101800Y-107487243D01*
X158505824Y-107083923D01*
X158559862Y-106953785D01*
X158612757Y-107081800D01*
X159016077Y-107485824D01*
X159543309Y-107704750D01*
X160114187Y-107705248D01*
X160641800Y-107487243D01*
X161045824Y-107083923D01*
X161099862Y-106953785D01*
X161152757Y-107081800D01*
X161556077Y-107485824D01*
X162083309Y-107704750D01*
X162654187Y-107705248D01*
X163181800Y-107487243D01*
X163585824Y-107083923D01*
X163639862Y-106953785D01*
X163692757Y-107081800D01*
X164096077Y-107485824D01*
X164623309Y-107704750D01*
X164861580Y-107704958D01*
X164698176Y-107868077D01*
X164479250Y-108395309D01*
X164478752Y-108966187D01*
X164696757Y-109493800D01*
X165100077Y-109897824D01*
X165627309Y-110116750D01*
X166198187Y-110117248D01*
X166725800Y-109899243D01*
X166935663Y-109689745D01*
X169657861Y-109689745D01*
X169731995Y-109935864D01*
X170269223Y-110128965D01*
X170839454Y-110101778D01*
X171240005Y-109935864D01*
X171314139Y-109689745D01*
X170486000Y-108861605D01*
X169657861Y-109689745D01*
X166935663Y-109689745D01*
X167129824Y-109495923D01*
X167348750Y-108968691D01*
X167349189Y-108465223D01*
X169039035Y-108465223D01*
X169066222Y-109035454D01*
X169232136Y-109436005D01*
X169478255Y-109510139D01*
X170306395Y-108682000D01*
X170665605Y-108682000D01*
X171493745Y-109510139D01*
X171739864Y-109436005D01*
X171932965Y-108898777D01*
X171905778Y-108328546D01*
X171739864Y-107927995D01*
X171493745Y-107853861D01*
X170665605Y-108682000D01*
X170306395Y-108682000D01*
X169478255Y-107853861D01*
X169232136Y-107927995D01*
X169039035Y-108465223D01*
X167349189Y-108465223D01*
X167349248Y-108397813D01*
X167131243Y-107870200D01*
X166826448Y-107564873D01*
X167163309Y-107704750D01*
X167734187Y-107705248D01*
X168261800Y-107487243D01*
X168665824Y-107083923D01*
X168719862Y-106953785D01*
X168772757Y-107081800D01*
X169176077Y-107485824D01*
X169677738Y-107694132D01*
X170486000Y-108502395D01*
X171314139Y-107674255D01*
X171240005Y-107428136D01*
X170961346Y-107327975D01*
X171205824Y-107083923D01*
X171259862Y-106953785D01*
X171312757Y-107081800D01*
X171716077Y-107485824D01*
X172243309Y-107704750D01*
X172814187Y-107705248D01*
X173341800Y-107487243D01*
X173745824Y-107083923D01*
X173964750Y-106556691D01*
X173965248Y-105985813D01*
X173747243Y-105458200D01*
X173343923Y-105054176D01*
X173213785Y-105000138D01*
X173341800Y-104947243D01*
X173745824Y-104543923D01*
X173964750Y-104016691D01*
X173965248Y-103445813D01*
X173747243Y-102918200D01*
X173343923Y-102514176D01*
X172816691Y-102295250D01*
X172245813Y-102294752D01*
X171718200Y-102512757D01*
X171314176Y-102916077D01*
X171260138Y-103046215D01*
X171207243Y-102918200D01*
X170803923Y-102514176D01*
X170276691Y-102295250D01*
X169705813Y-102294752D01*
X169178200Y-102512757D01*
X168774176Y-102916077D01*
X168720138Y-103046215D01*
X168667243Y-102918200D01*
X168263923Y-102514176D01*
X168249975Y-102508384D01*
X168528943Y-102393117D01*
X168792192Y-102130327D01*
X168934838Y-101786799D01*
X168935162Y-101414833D01*
X168793117Y-101071057D01*
X168530327Y-100807808D01*
X168186799Y-100665162D01*
X167814833Y-100664838D01*
X167471057Y-100806883D01*
X167437882Y-100840000D01*
X167000000Y-100840000D01*
X166709161Y-100897852D01*
X166462599Y-101062599D01*
X165662599Y-101862599D01*
X165497852Y-102109161D01*
X165440683Y-102396565D01*
X165196691Y-102295250D01*
X164625813Y-102294752D01*
X164098200Y-102512757D01*
X163694176Y-102916077D01*
X163640138Y-103046215D01*
X163587243Y-102918200D01*
X163183923Y-102514176D01*
X162656691Y-102295250D01*
X162085813Y-102294752D01*
X161558200Y-102512757D01*
X161154176Y-102916077D01*
X161100138Y-103046215D01*
X161047243Y-102918200D01*
X160643923Y-102514176D01*
X160116691Y-102295250D01*
X159545813Y-102294752D01*
X159018200Y-102512757D01*
X158614176Y-102916077D01*
X158560138Y-103046215D01*
X158507243Y-102918200D01*
X158103923Y-102514176D01*
X157576691Y-102295250D01*
X157005813Y-102294752D01*
X156722562Y-102411789D01*
X156702148Y-102309161D01*
X156537401Y-102062599D01*
X154979968Y-100505166D01*
X155074187Y-100505248D01*
X155601800Y-100287243D01*
X156005824Y-99883923D01*
X156059862Y-99753785D01*
X156112757Y-99881800D01*
X156516077Y-100285824D01*
X157043309Y-100504750D01*
X157614187Y-100505248D01*
X158141800Y-100287243D01*
X158545824Y-99883923D01*
X158599862Y-99753785D01*
X158652757Y-99881800D01*
X159056077Y-100285824D01*
X159583309Y-100504750D01*
X160154187Y-100505248D01*
X160681800Y-100287243D01*
X161085824Y-99883923D01*
X161139862Y-99753785D01*
X161192757Y-99881800D01*
X161596077Y-100285824D01*
X162123309Y-100504750D01*
X162694187Y-100505248D01*
X163221800Y-100287243D01*
X163625824Y-99883923D01*
X163679862Y-99753785D01*
X163732757Y-99881800D01*
X164136077Y-100285824D01*
X164663309Y-100504750D01*
X165234187Y-100505248D01*
X165761800Y-100287243D01*
X165971663Y-100077745D01*
X166661861Y-100077745D01*
X166735995Y-100323864D01*
X167273223Y-100516965D01*
X167843454Y-100489778D01*
X168244005Y-100323864D01*
X168318139Y-100077745D01*
X167490000Y-99249605D01*
X166661861Y-100077745D01*
X165971663Y-100077745D01*
X166165824Y-99883923D01*
X166213448Y-99769232D01*
X166236136Y-99824005D01*
X166482255Y-99898139D01*
X167310395Y-99070000D01*
X166482255Y-98241861D01*
X166236136Y-98315995D01*
X166215195Y-98374254D01*
X166167243Y-98258200D01*
X165763923Y-97854176D01*
X165633785Y-97800138D01*
X165761800Y-97747243D01*
X166165824Y-97343923D01*
X166219862Y-97213785D01*
X166272757Y-97341800D01*
X166676077Y-97745824D01*
X166790768Y-97793448D01*
X166735995Y-97816136D01*
X166661861Y-98062255D01*
X167490000Y-98890395D01*
X168318139Y-98062255D01*
X168244005Y-97816136D01*
X168185746Y-97795195D01*
X168301800Y-97747243D01*
X168705824Y-97343923D01*
X168759862Y-97213785D01*
X168812757Y-97341800D01*
X169216077Y-97745824D01*
X169346215Y-97799862D01*
X169218200Y-97852757D01*
X168814176Y-98256077D01*
X168766552Y-98370768D01*
X168743864Y-98315995D01*
X168497745Y-98241861D01*
X167669605Y-99070000D01*
X168497745Y-99898139D01*
X168743864Y-99824005D01*
X168764805Y-99765746D01*
X168812757Y-99881800D01*
X169216077Y-100285824D01*
X169743309Y-100504750D01*
X170314187Y-100505248D01*
X170841800Y-100287243D01*
X171245824Y-99883923D01*
X171299862Y-99753785D01*
X171352757Y-99881800D01*
X171756077Y-100285824D01*
X172283309Y-100504750D01*
X172854187Y-100505248D01*
X173381800Y-100287243D01*
X173785824Y-99883923D01*
X174004750Y-99356691D01*
X174005248Y-98785813D01*
X173787243Y-98258200D01*
X173383923Y-97854176D01*
X173253785Y-97800138D01*
X173381800Y-97747243D01*
X173785824Y-97343923D01*
X174004750Y-96816691D01*
X174005248Y-96245813D01*
X173787243Y-95718200D01*
X173383923Y-95314176D01*
X172856691Y-95095250D01*
X172285813Y-95094752D01*
X171758200Y-95312757D01*
X171354176Y-95716077D01*
X171300138Y-95846215D01*
X171247243Y-95718200D01*
X170843923Y-95314176D01*
X170316691Y-95095250D01*
X169745813Y-95094752D01*
X169218200Y-95312757D01*
X168814176Y-95716077D01*
X168760138Y-95846215D01*
X168707243Y-95718200D01*
X168303923Y-95314176D01*
X167776691Y-95095250D01*
X167205813Y-95094752D01*
X166678200Y-95312757D01*
X166274176Y-95716077D01*
X166220138Y-95846215D01*
X166167243Y-95718200D01*
X165763923Y-95314176D01*
X165236691Y-95095250D01*
X164665813Y-95094752D01*
X164138200Y-95312757D01*
X163734176Y-95716077D01*
X163680138Y-95846215D01*
X163627243Y-95718200D01*
X163223923Y-95314176D01*
X162696691Y-95095250D01*
X162125813Y-95094752D01*
X161598200Y-95312757D01*
X161194176Y-95716077D01*
X161140138Y-95846215D01*
X161087243Y-95718200D01*
X160683923Y-95314176D01*
X160156691Y-95095250D01*
X159585813Y-95094752D01*
X159058200Y-95312757D01*
X158654176Y-95716077D01*
X158600138Y-95846215D01*
X158547243Y-95718200D01*
X158143923Y-95314176D01*
X157616691Y-95095250D01*
X157045813Y-95094752D01*
X156518200Y-95312757D01*
X156114176Y-95716077D01*
X156060138Y-95846215D01*
X156007243Y-95718200D01*
X155603923Y-95314176D01*
X155076691Y-95095250D01*
X154505813Y-95094752D01*
X153978200Y-95312757D01*
X153574176Y-95716077D01*
X153520138Y-95846215D01*
X153467243Y-95718200D01*
X153063923Y-95314176D01*
X152536691Y-95095250D01*
X151965813Y-95094752D01*
X151438200Y-95312757D01*
X151034176Y-95716077D01*
X150980138Y-95846215D01*
X150927243Y-95718200D01*
X150523923Y-95314176D01*
X149996691Y-95095250D01*
X149425813Y-95094752D01*
X148898200Y-95312757D01*
X148494176Y-95716077D01*
X148440138Y-95846215D01*
X148387243Y-95718200D01*
X147983923Y-95314176D01*
X147456691Y-95095250D01*
X146885813Y-95094752D01*
X146358200Y-95312757D01*
X145954176Y-95716077D01*
X145900138Y-95846215D01*
X145847243Y-95718200D01*
X145443923Y-95314176D01*
X144916691Y-95095250D01*
X144345813Y-95094752D01*
X143818200Y-95312757D01*
X143414176Y-95716077D01*
X143360138Y-95846215D01*
X143307243Y-95718200D01*
X142903923Y-95314176D01*
X142376691Y-95095250D01*
X141805813Y-95094752D01*
X141278200Y-95312757D01*
X140874176Y-95716077D01*
X140655250Y-96243309D01*
X140654752Y-96814187D01*
X140872757Y-97341800D01*
X141276077Y-97745824D01*
X141406215Y-97799862D01*
X141278200Y-97852757D01*
X140874176Y-98256077D01*
X140655250Y-98783309D01*
X140654752Y-99354187D01*
X140872757Y-99881800D01*
X141276077Y-100285824D01*
X141803309Y-100504750D01*
X142374187Y-100505248D01*
X142555521Y-100430323D01*
X143262599Y-101137401D01*
X143509161Y-101302148D01*
X143800000Y-101360000D01*
X145416149Y-101360000D01*
X145262599Y-101462599D01*
X144430337Y-102294861D01*
X144305813Y-102294752D01*
X143778200Y-102512757D01*
X143374176Y-102916077D01*
X143320138Y-103046215D01*
X143267243Y-102918200D01*
X142863923Y-102514176D01*
X142336691Y-102295250D01*
X141765813Y-102294752D01*
X141238200Y-102512757D01*
X140834176Y-102916077D01*
X140780138Y-103046215D01*
X140727243Y-102918200D01*
X140323923Y-102514176D01*
X139796691Y-102295250D01*
X139225813Y-102294752D01*
X138698200Y-102512757D01*
X138294176Y-102916077D01*
X138240138Y-103046215D01*
X138187243Y-102918200D01*
X137783923Y-102514176D01*
X137256691Y-102295250D01*
X136685813Y-102294752D01*
X136158200Y-102512757D01*
X135754176Y-102916077D01*
X135700138Y-103046215D01*
X135647243Y-102918200D01*
X135243923Y-102514176D01*
X134716691Y-102295250D01*
X134145813Y-102294752D01*
X133618200Y-102512757D01*
X133214176Y-102916077D01*
X133160138Y-103046215D01*
X133107243Y-102918200D01*
X132703923Y-102514176D01*
X132176691Y-102295250D01*
X131605813Y-102294752D01*
X131078200Y-102512757D01*
X130674176Y-102916077D01*
X130626552Y-103030768D01*
X130603864Y-102975995D01*
X130357745Y-102901861D01*
X129529605Y-103730000D01*
X130357745Y-104558139D01*
X130603864Y-104484005D01*
X130624805Y-104425746D01*
X130672757Y-104541800D01*
X131076077Y-104945824D01*
X131206215Y-104999862D01*
X131078200Y-105052757D01*
X130674176Y-105456077D01*
X130620138Y-105586215D01*
X130567243Y-105458200D01*
X130163923Y-105054176D01*
X130049232Y-105006552D01*
X130104005Y-104983864D01*
X130178139Y-104737745D01*
X129350000Y-103909605D01*
X128521861Y-104737745D01*
X128595995Y-104983864D01*
X128654254Y-105004805D01*
X128538200Y-105052757D01*
X128134176Y-105456077D01*
X128080138Y-105586215D01*
X128027243Y-105458200D01*
X127623923Y-105054176D01*
X127493785Y-105000138D01*
X127621800Y-104947243D01*
X128025824Y-104543923D01*
X128073448Y-104429232D01*
X128096136Y-104484005D01*
X128342255Y-104558139D01*
X129170395Y-103730000D01*
X128342255Y-102901861D01*
X128096136Y-102975995D01*
X128075195Y-103034254D01*
X128027243Y-102918200D01*
X127831640Y-102722255D01*
X128521861Y-102722255D01*
X129350000Y-103550395D01*
X130178139Y-102722255D01*
X130104005Y-102476136D01*
X129566777Y-102283035D01*
X128996546Y-102310222D01*
X128595995Y-102476136D01*
X128521861Y-102722255D01*
X127831640Y-102722255D01*
X127623923Y-102514176D01*
X127096691Y-102295250D01*
X126525813Y-102294752D01*
X125998200Y-102512757D01*
X125594176Y-102916077D01*
X125540138Y-103046215D01*
X125487243Y-102918200D01*
X125083923Y-102514176D01*
X124556691Y-102295250D01*
X123985813Y-102294752D01*
X123458200Y-102512757D01*
X123054176Y-102916077D01*
X122835250Y-103443309D01*
X122834752Y-104014187D01*
X116710000Y-104014187D01*
X116710000Y-93501795D01*
X117354716Y-93501795D01*
X117603106Y-94102943D01*
X118062637Y-94563278D01*
X118663352Y-94812716D01*
X119313795Y-94813284D01*
X119914943Y-94564894D01*
X120375278Y-94105363D01*
X120624716Y-93504648D01*
X120625284Y-92854205D01*
X120376894Y-92253057D01*
X120323764Y-92199834D01*
X120798187Y-92200248D01*
X121325800Y-91982243D01*
X121535663Y-91772745D01*
X124257861Y-91772745D01*
X124331995Y-92018864D01*
X124869223Y-92211965D01*
X125283468Y-92192215D01*
X125097722Y-92377637D01*
X124848284Y-92978352D01*
X124847716Y-93628795D01*
X125096106Y-94229943D01*
X125555637Y-94690278D01*
X126156352Y-94939716D01*
X126806795Y-94940284D01*
X127407943Y-94691894D01*
X127868278Y-94232363D01*
X128117716Y-93631648D01*
X128118004Y-93301795D01*
X169154716Y-93301795D01*
X169403106Y-93902943D01*
X169862637Y-94363278D01*
X170463352Y-94612716D01*
X171113795Y-94613284D01*
X171714943Y-94364894D01*
X172175278Y-93905363D01*
X172424716Y-93304648D01*
X172425284Y-92654205D01*
X172176894Y-92053057D01*
X172123764Y-91999834D01*
X172598187Y-92000248D01*
X173125800Y-91782243D01*
X173335663Y-91572745D01*
X176057861Y-91572745D01*
X176131995Y-91818864D01*
X176669223Y-92011965D01*
X177083468Y-91992215D01*
X176897722Y-92177637D01*
X176648284Y-92778352D01*
X176647716Y-93428795D01*
X176896106Y-94029943D01*
X177355637Y-94490278D01*
X177956352Y-94739716D01*
X178606795Y-94740284D01*
X179207943Y-94491894D01*
X179668278Y-94032363D01*
X179917716Y-93431648D01*
X179918284Y-92781205D01*
X179669894Y-92180057D01*
X179210363Y-91719722D01*
X178609648Y-91470284D01*
X177970334Y-91469726D01*
X177893747Y-91393139D01*
X178139864Y-91319005D01*
X178332965Y-90781777D01*
X178305778Y-90211546D01*
X178139864Y-89810995D01*
X177893745Y-89736861D01*
X177065605Y-90565000D01*
X177079748Y-90579142D01*
X176900142Y-90758748D01*
X176886000Y-90744605D01*
X176057861Y-91572745D01*
X173335663Y-91572745D01*
X173529824Y-91378923D01*
X173748750Y-90851691D01*
X173749189Y-90348223D01*
X175439035Y-90348223D01*
X175466222Y-90918454D01*
X175632136Y-91319005D01*
X175878255Y-91393139D01*
X176706395Y-90565000D01*
X175878255Y-89736861D01*
X175632136Y-89810995D01*
X175439035Y-90348223D01*
X173749189Y-90348223D01*
X173749248Y-90280813D01*
X173531243Y-89753200D01*
X173335640Y-89557255D01*
X176057861Y-89557255D01*
X176886000Y-90385395D01*
X177714139Y-89557255D01*
X177640005Y-89311136D01*
X177102777Y-89118035D01*
X176532546Y-89145222D01*
X176131995Y-89311136D01*
X176057861Y-89557255D01*
X173335640Y-89557255D01*
X173127923Y-89349176D01*
X172600691Y-89130250D01*
X172029813Y-89129752D01*
X171502200Y-89347757D01*
X171098176Y-89751077D01*
X170879250Y-90278309D01*
X170878752Y-90849187D01*
X171082896Y-91343255D01*
X170466205Y-91342716D01*
X169865057Y-91591106D01*
X169404722Y-92050637D01*
X169155284Y-92651352D01*
X169154716Y-93301795D01*
X128118004Y-93301795D01*
X128118284Y-92981205D01*
X127869894Y-92380057D01*
X127410363Y-91919722D01*
X126809648Y-91670284D01*
X126170334Y-91669726D01*
X126093747Y-91593139D01*
X126339864Y-91519005D01*
X126532965Y-90981777D01*
X126505778Y-90411546D01*
X126339864Y-90010995D01*
X126093745Y-89936861D01*
X125265605Y-90765000D01*
X125279748Y-90779142D01*
X125100142Y-90958748D01*
X125086000Y-90944605D01*
X124257861Y-91772745D01*
X121535663Y-91772745D01*
X121729824Y-91578923D01*
X121948750Y-91051691D01*
X121949189Y-90548223D01*
X123639035Y-90548223D01*
X123666222Y-91118454D01*
X123832136Y-91519005D01*
X124078255Y-91593139D01*
X124906395Y-90765000D01*
X124078255Y-89936861D01*
X123832136Y-90010995D01*
X123639035Y-90548223D01*
X121949189Y-90548223D01*
X121949248Y-90480813D01*
X121731243Y-89953200D01*
X121535640Y-89757255D01*
X124257861Y-89757255D01*
X125086000Y-90585395D01*
X125914139Y-89757255D01*
X125840005Y-89511136D01*
X125302777Y-89318035D01*
X124732546Y-89345222D01*
X124331995Y-89511136D01*
X124257861Y-89757255D01*
X121535640Y-89757255D01*
X121327923Y-89549176D01*
X120800691Y-89330250D01*
X120229813Y-89329752D01*
X119702200Y-89547757D01*
X119298176Y-89951077D01*
X119079250Y-90478309D01*
X119078752Y-91049187D01*
X119282896Y-91543255D01*
X118666205Y-91542716D01*
X118065057Y-91791106D01*
X117604722Y-92250637D01*
X117355284Y-92851352D01*
X117354716Y-93501795D01*
X116710000Y-93501795D01*
X116710000Y-90355861D01*
X116800794Y-90058154D01*
X118570708Y-88730719D01*
X118794869Y-88708979D01*
X118800000Y-88710000D01*
X118800000Y-88710000D01*
G37*
X118800000Y-88710000D02*
X178130069Y-88710000D01*
X178414419Y-88766561D01*
X179997700Y-90205907D01*
X180090000Y-90669931D01*
X180090000Y-116712975D01*
X179893745Y-116653861D01*
X179065605Y-117482000D01*
X179893745Y-118310139D01*
X180090000Y-118251025D01*
X180090000Y-125165934D01*
X179699923Y-124775176D01*
X179172691Y-124556250D01*
X178601813Y-124555752D01*
X178074200Y-124773757D01*
X177670176Y-125177077D01*
X177451250Y-125704309D01*
X177450752Y-126275187D01*
X177668757Y-126802800D01*
X178072077Y-127206824D01*
X178599309Y-127425750D01*
X179170187Y-127426248D01*
X179697800Y-127208243D01*
X180090000Y-126816726D01*
X180090000Y-132710118D01*
X180013683Y-133006711D01*
X177626299Y-135394095D01*
X176949913Y-135490000D01*
X171749544Y-135490000D01*
X171920750Y-135077691D01*
X171921248Y-134506813D01*
X171703243Y-133979200D01*
X171299923Y-133575176D01*
X170772691Y-133356250D01*
X170201813Y-133355752D01*
X169674200Y-133573757D01*
X169270176Y-133977077D01*
X169051250Y-134504309D01*
X169050752Y-135075187D01*
X169222149Y-135490000D01*
X167177544Y-135490000D01*
X167348750Y-135077691D01*
X167349248Y-134506813D01*
X167131243Y-133979200D01*
X166727923Y-133575176D01*
X166200691Y-133356250D01*
X165629813Y-133355752D01*
X165102200Y-133573757D01*
X164698176Y-133977077D01*
X164479250Y-134504309D01*
X164478752Y-135075187D01*
X164650149Y-135490000D01*
X132149544Y-135490000D01*
X132320750Y-135077691D01*
X132321248Y-134506813D01*
X132103243Y-133979200D01*
X131699923Y-133575176D01*
X131172691Y-133356250D01*
X130601813Y-133355752D01*
X130074200Y-133573757D01*
X129670176Y-133977077D01*
X129451250Y-134504309D01*
X129450752Y-135075187D01*
X129622149Y-135490000D01*
X127577544Y-135490000D01*
X127748750Y-135077691D01*
X127749248Y-134506813D01*
X127531243Y-133979200D01*
X127127923Y-133575176D01*
X126600691Y-133356250D01*
X126029813Y-133355752D01*
X125502200Y-133573757D01*
X125098176Y-133977077D01*
X124879250Y-134504309D01*
X124878752Y-135075187D01*
X125050149Y-135490000D01*
X119489882Y-135490000D01*
X119193289Y-135413683D01*
X116805905Y-133026299D01*
X116756826Y-132680159D01*
X138597446Y-132680159D01*
X138683852Y-132936643D01*
X139257336Y-133146458D01*
X139867460Y-133120839D01*
X140312148Y-132936643D01*
X140398554Y-132680159D01*
X139498000Y-131779605D01*
X138597446Y-132680159D01*
X116756826Y-132680159D01*
X116710000Y-132349913D01*
X116710000Y-131359336D01*
X137951542Y-131359336D01*
X137977161Y-131969460D01*
X138161357Y-132414148D01*
X138417841Y-132500554D01*
X139318395Y-131600000D01*
X139677605Y-131600000D01*
X140578159Y-132500554D01*
X140834643Y-132414148D01*
X141021289Y-131903991D01*
X144566735Y-131903991D01*
X144799932Y-132468371D01*
X145231357Y-132900551D01*
X145795330Y-133134733D01*
X146405991Y-133135265D01*
X146970371Y-132902068D01*
X147192668Y-132680159D01*
X149797446Y-132680159D01*
X149883852Y-132936643D01*
X150457336Y-133146458D01*
X151067460Y-133120839D01*
X151512148Y-132936643D01*
X151598554Y-132680159D01*
X150698000Y-131779605D01*
X149797446Y-132680159D01*
X147192668Y-132680159D01*
X147402551Y-132470643D01*
X147636733Y-131906670D01*
X147637209Y-131359336D01*
X149151542Y-131359336D01*
X149177161Y-131969460D01*
X149361357Y-132414148D01*
X149617841Y-132500554D01*
X150518395Y-131600000D01*
X150877605Y-131600000D01*
X151778159Y-132500554D01*
X152034643Y-132414148D01*
X152221289Y-131903991D01*
X155766735Y-131903991D01*
X155999932Y-132468371D01*
X156431357Y-132900551D01*
X156995330Y-133134733D01*
X157605991Y-133135265D01*
X158170371Y-132902068D01*
X158602551Y-132470643D01*
X158836733Y-131906670D01*
X158837265Y-131296009D01*
X158604068Y-130731629D01*
X158172643Y-130299449D01*
X157608670Y-130065267D01*
X156998009Y-130064735D01*
X156433629Y-130297932D01*
X156001449Y-130729357D01*
X155767267Y-131293330D01*
X155766735Y-131903991D01*
X152221289Y-131903991D01*
X152244458Y-131840664D01*
X152218839Y-131230540D01*
X152034643Y-130785852D01*
X151778159Y-130699446D01*
X150877605Y-131600000D01*
X150518395Y-131600000D01*
X149617841Y-130699446D01*
X149361357Y-130785852D01*
X149151542Y-131359336D01*
X147637209Y-131359336D01*
X147637265Y-131296009D01*
X147404068Y-130731629D01*
X147192650Y-130519841D01*
X149797446Y-130519841D01*
X150698000Y-131420395D01*
X151598554Y-130519841D01*
X151512148Y-130263357D01*
X150938664Y-130053542D01*
X150328540Y-130079161D01*
X149883852Y-130263357D01*
X149797446Y-130519841D01*
X147192650Y-130519841D01*
X146972643Y-130299449D01*
X146408670Y-130065267D01*
X145798009Y-130064735D01*
X145233629Y-130297932D01*
X144801449Y-130729357D01*
X144567267Y-131293330D01*
X144566735Y-131903991D01*
X141021289Y-131903991D01*
X141044458Y-131840664D01*
X141018839Y-131230540D01*
X140834643Y-130785852D01*
X140578159Y-130699446D01*
X139677605Y-131600000D01*
X139318395Y-131600000D01*
X138417841Y-130699446D01*
X138161357Y-130785852D01*
X137951542Y-131359336D01*
X116710000Y-131359336D01*
X116710000Y-130519841D01*
X138597446Y-130519841D01*
X139498000Y-131420395D01*
X140398554Y-130519841D01*
X140312148Y-130263357D01*
X139738664Y-130053542D01*
X139128540Y-130079161D01*
X138683852Y-130263357D01*
X138597446Y-130519841D01*
X116710000Y-130519841D01*
X116710000Y-126816066D01*
X117100077Y-127206824D01*
X117627309Y-127425750D01*
X118198187Y-127426248D01*
X118725800Y-127208243D01*
X119129824Y-126804923D01*
X119348750Y-126277691D01*
X119348752Y-126275187D01*
X121050752Y-126275187D01*
X121268757Y-126802800D01*
X121672077Y-127206824D01*
X122199309Y-127425750D01*
X122770187Y-127426248D01*
X123297800Y-127208243D01*
X123701824Y-126804923D01*
X123800955Y-126566187D01*
X124878752Y-126566187D01*
X125096757Y-127093800D01*
X125500077Y-127497824D01*
X126027309Y-127716750D01*
X126598187Y-127717248D01*
X127125800Y-127499243D01*
X127335663Y-127289745D01*
X130057861Y-127289745D01*
X130131995Y-127535864D01*
X130669223Y-127728965D01*
X131239454Y-127701778D01*
X131640005Y-127535864D01*
X131714139Y-127289745D01*
X130886000Y-126461605D01*
X130057861Y-127289745D01*
X127335663Y-127289745D01*
X127529824Y-127095923D01*
X127748750Y-126568691D01*
X127749189Y-126065223D01*
X129439035Y-126065223D01*
X129466222Y-126635454D01*
X129632136Y-127036005D01*
X129878255Y-127110139D01*
X130706395Y-126282000D01*
X131065605Y-126282000D01*
X131893745Y-127110139D01*
X132139864Y-127036005D01*
X132332965Y-126498777D01*
X132322305Y-126275187D01*
X133278752Y-126275187D01*
X133496757Y-126802800D01*
X133900077Y-127206824D01*
X134427309Y-127425750D01*
X134998187Y-127426248D01*
X135525800Y-127208243D01*
X135929824Y-126804923D01*
X136148750Y-126277691D01*
X136148752Y-126275187D01*
X137850752Y-126275187D01*
X138068757Y-126802800D01*
X138472077Y-127206824D01*
X138999309Y-127425750D01*
X139570187Y-127426248D01*
X140097800Y-127208243D01*
X140501824Y-126804923D01*
X140720750Y-126277691D01*
X140720752Y-126275187D01*
X156078752Y-126275187D01*
X156296757Y-126802800D01*
X156700077Y-127206824D01*
X157227309Y-127425750D01*
X157798187Y-127426248D01*
X158325800Y-127208243D01*
X158729824Y-126804923D01*
X158948750Y-126277691D01*
X158948752Y-126275187D01*
X160650752Y-126275187D01*
X160868757Y-126802800D01*
X161272077Y-127206824D01*
X161799309Y-127425750D01*
X162370187Y-127426248D01*
X162897800Y-127208243D01*
X163301824Y-126804923D01*
X163400955Y-126566187D01*
X164478752Y-126566187D01*
X164696757Y-127093800D01*
X165100077Y-127497824D01*
X165627309Y-127716750D01*
X166198187Y-127717248D01*
X166725800Y-127499243D01*
X166935663Y-127289745D01*
X169657861Y-127289745D01*
X169731995Y-127535864D01*
X170269223Y-127728965D01*
X170839454Y-127701778D01*
X171240005Y-127535864D01*
X171314139Y-127289745D01*
X170486000Y-126461605D01*
X169657861Y-127289745D01*
X166935663Y-127289745D01*
X167129824Y-127095923D01*
X167348750Y-126568691D01*
X167349189Y-126065223D01*
X169039035Y-126065223D01*
X169066222Y-126635454D01*
X169232136Y-127036005D01*
X169478255Y-127110139D01*
X170306395Y-126282000D01*
X170665605Y-126282000D01*
X171493745Y-127110139D01*
X171739864Y-127036005D01*
X171932965Y-126498777D01*
X171922305Y-126275187D01*
X172878752Y-126275187D01*
X173096757Y-126802800D01*
X173500077Y-127206824D01*
X174027309Y-127425750D01*
X174598187Y-127426248D01*
X175125800Y-127208243D01*
X175529824Y-126804923D01*
X175748750Y-126277691D01*
X175749248Y-125706813D01*
X175531243Y-125179200D01*
X175127923Y-124775176D01*
X174600691Y-124556250D01*
X174029813Y-124555752D01*
X173502200Y-124773757D01*
X173098176Y-125177077D01*
X172879250Y-125704309D01*
X172878752Y-126275187D01*
X171922305Y-126275187D01*
X171905778Y-125928546D01*
X171739864Y-125527995D01*
X171493745Y-125453861D01*
X170665605Y-126282000D01*
X170306395Y-126282000D01*
X169478255Y-125453861D01*
X169232136Y-125527995D01*
X169039035Y-126065223D01*
X167349189Y-126065223D01*
X167349248Y-125997813D01*
X167131243Y-125470200D01*
X166935640Y-125274255D01*
X169657861Y-125274255D01*
X170486000Y-126102395D01*
X171314139Y-125274255D01*
X171240005Y-125028136D01*
X170702777Y-124835035D01*
X170132546Y-124862222D01*
X169731995Y-125028136D01*
X169657861Y-125274255D01*
X166935640Y-125274255D01*
X166727923Y-125066176D01*
X166200691Y-124847250D01*
X165629813Y-124846752D01*
X165102200Y-125064757D01*
X164698176Y-125468077D01*
X164479250Y-125995309D01*
X164478752Y-126566187D01*
X163400955Y-126566187D01*
X163520750Y-126277691D01*
X163521248Y-125706813D01*
X163303243Y-125179200D01*
X162899923Y-124775176D01*
X162372691Y-124556250D01*
X161801813Y-124555752D01*
X161274200Y-124773757D01*
X160870176Y-125177077D01*
X160651250Y-125704309D01*
X160650752Y-126275187D01*
X158948752Y-126275187D01*
X158949248Y-125706813D01*
X158731243Y-125179200D01*
X158327923Y-124775176D01*
X157800691Y-124556250D01*
X157229813Y-124555752D01*
X156702200Y-124773757D01*
X156298176Y-125177077D01*
X156079250Y-125704309D01*
X156078752Y-126275187D01*
X140720752Y-126275187D01*
X140721248Y-125706813D01*
X140503243Y-125179200D01*
X140099923Y-124775176D01*
X139572691Y-124556250D01*
X139001813Y-124555752D01*
X138474200Y-124773757D01*
X138070176Y-125177077D01*
X137851250Y-125704309D01*
X137850752Y-126275187D01*
X136148752Y-126275187D01*
X136149248Y-125706813D01*
X135931243Y-125179200D01*
X135527923Y-124775176D01*
X135000691Y-124556250D01*
X134429813Y-124555752D01*
X133902200Y-124773757D01*
X133498176Y-125177077D01*
X133279250Y-125704309D01*
X133278752Y-126275187D01*
X132322305Y-126275187D01*
X132305778Y-125928546D01*
X132139864Y-125527995D01*
X131893745Y-125453861D01*
X131065605Y-126282000D01*
X130706395Y-126282000D01*
X129878255Y-125453861D01*
X129632136Y-125527995D01*
X129439035Y-126065223D01*
X127749189Y-126065223D01*
X127749248Y-125997813D01*
X127531243Y-125470200D01*
X127335640Y-125274255D01*
X130057861Y-125274255D01*
X130886000Y-126102395D01*
X131714139Y-125274255D01*
X131640005Y-125028136D01*
X131102777Y-124835035D01*
X130532546Y-124862222D01*
X130131995Y-125028136D01*
X130057861Y-125274255D01*
X127335640Y-125274255D01*
X127127923Y-125066176D01*
X126600691Y-124847250D01*
X126029813Y-124846752D01*
X125502200Y-125064757D01*
X125098176Y-125468077D01*
X124879250Y-125995309D01*
X124878752Y-126566187D01*
X123800955Y-126566187D01*
X123920750Y-126277691D01*
X123921248Y-125706813D01*
X123703243Y-125179200D01*
X123299923Y-124775176D01*
X122772691Y-124556250D01*
X122201813Y-124555752D01*
X121674200Y-124773757D01*
X121270176Y-125177077D01*
X121051250Y-125704309D01*
X121050752Y-126275187D01*
X119348752Y-126275187D01*
X119349248Y-125706813D01*
X119131243Y-125179200D01*
X118727923Y-124775176D01*
X118200691Y-124556250D01*
X117629813Y-124555752D01*
X117102200Y-124773757D01*
X116710000Y-125165274D01*
X116710000Y-118307066D01*
X117100077Y-118697824D01*
X117627309Y-118916750D01*
X118198187Y-118917248D01*
X118725800Y-118699243D01*
X118935663Y-118489745D01*
X121657861Y-118489745D01*
X121731995Y-118735864D01*
X122269223Y-118928965D01*
X122839454Y-118901778D01*
X123240005Y-118735864D01*
X123314139Y-118489745D01*
X122486000Y-117661605D01*
X121657861Y-118489745D01*
X118935663Y-118489745D01*
X119129824Y-118295923D01*
X119348750Y-117768691D01*
X119349189Y-117265223D01*
X121039035Y-117265223D01*
X121066222Y-117835454D01*
X121232136Y-118236005D01*
X121478255Y-118310139D01*
X122306395Y-117482000D01*
X122665605Y-117482000D01*
X123493745Y-118310139D01*
X123739864Y-118236005D01*
X123932965Y-117698777D01*
X123922305Y-117475187D01*
X124878752Y-117475187D01*
X125096757Y-118002800D01*
X125500077Y-118406824D01*
X126027309Y-118625750D01*
X126598187Y-118626248D01*
X127125800Y-118408243D01*
X127529824Y-118004923D01*
X127748750Y-117477691D01*
X127748752Y-117475187D01*
X129450752Y-117475187D01*
X129668757Y-118002800D01*
X130072077Y-118406824D01*
X130599309Y-118625750D01*
X131170187Y-118626248D01*
X131697800Y-118408243D01*
X132101824Y-118004923D01*
X132200955Y-117766187D01*
X133278752Y-117766187D01*
X133496757Y-118293800D01*
X133900077Y-118697824D01*
X134427309Y-118916750D01*
X134998187Y-118917248D01*
X135525800Y-118699243D01*
X135735663Y-118489745D01*
X138457861Y-118489745D01*
X138531995Y-118735864D01*
X139069223Y-118928965D01*
X139639454Y-118901778D01*
X140040005Y-118735864D01*
X140114139Y-118489745D01*
X139286000Y-117661605D01*
X138457861Y-118489745D01*
X135735663Y-118489745D01*
X135929824Y-118295923D01*
X136148750Y-117768691D01*
X136149189Y-117265223D01*
X137839035Y-117265223D01*
X137866222Y-117835454D01*
X138032136Y-118236005D01*
X138278255Y-118310139D01*
X139106395Y-117482000D01*
X139465605Y-117482000D01*
X140293745Y-118310139D01*
X140539864Y-118236005D01*
X140708735Y-117766187D01*
X156078752Y-117766187D01*
X156296757Y-118293800D01*
X156700077Y-118697824D01*
X157227309Y-118916750D01*
X157798187Y-118917248D01*
X158325800Y-118699243D01*
X158535663Y-118489745D01*
X161257861Y-118489745D01*
X161331995Y-118735864D01*
X161869223Y-118928965D01*
X162439454Y-118901778D01*
X162840005Y-118735864D01*
X162914139Y-118489745D01*
X162086000Y-117661605D01*
X161257861Y-118489745D01*
X158535663Y-118489745D01*
X158729824Y-118295923D01*
X158948750Y-117768691D01*
X158949189Y-117265223D01*
X160639035Y-117265223D01*
X160666222Y-117835454D01*
X160832136Y-118236005D01*
X161078255Y-118310139D01*
X161906395Y-117482000D01*
X162265605Y-117482000D01*
X163093745Y-118310139D01*
X163339864Y-118236005D01*
X163532965Y-117698777D01*
X163522305Y-117475187D01*
X164478752Y-117475187D01*
X164696757Y-118002800D01*
X165100077Y-118406824D01*
X165627309Y-118625750D01*
X166198187Y-118626248D01*
X166725800Y-118408243D01*
X167129824Y-118004923D01*
X167348750Y-117477691D01*
X167348752Y-117475187D01*
X169050752Y-117475187D01*
X169268757Y-118002800D01*
X169672077Y-118406824D01*
X170199309Y-118625750D01*
X170770187Y-118626248D01*
X171297800Y-118408243D01*
X171701824Y-118004923D01*
X171800955Y-117766187D01*
X172878752Y-117766187D01*
X173096757Y-118293800D01*
X173500077Y-118697824D01*
X174027309Y-118916750D01*
X174598187Y-118917248D01*
X175125800Y-118699243D01*
X175335663Y-118489745D01*
X178057861Y-118489745D01*
X178131995Y-118735864D01*
X178669223Y-118928965D01*
X179239454Y-118901778D01*
X179640005Y-118735864D01*
X179714139Y-118489745D01*
X178886000Y-117661605D01*
X178057861Y-118489745D01*
X175335663Y-118489745D01*
X175529824Y-118295923D01*
X175748750Y-117768691D01*
X175749189Y-117265223D01*
X177439035Y-117265223D01*
X177466222Y-117835454D01*
X177632136Y-118236005D01*
X177878255Y-118310139D01*
X178706395Y-117482000D01*
X177878255Y-116653861D01*
X177632136Y-116727995D01*
X177439035Y-117265223D01*
X175749189Y-117265223D01*
X175749248Y-117197813D01*
X175531243Y-116670200D01*
X175335640Y-116474255D01*
X178057861Y-116474255D01*
X178886000Y-117302395D01*
X179714139Y-116474255D01*
X179640005Y-116228136D01*
X179102777Y-116035035D01*
X178532546Y-116062222D01*
X178131995Y-116228136D01*
X178057861Y-116474255D01*
X175335640Y-116474255D01*
X175127923Y-116266176D01*
X174600691Y-116047250D01*
X174029813Y-116046752D01*
X173502200Y-116264757D01*
X173098176Y-116668077D01*
X172879250Y-117195309D01*
X172878752Y-117766187D01*
X171800955Y-117766187D01*
X171920750Y-117477691D01*
X171921248Y-116906813D01*
X171703243Y-116379200D01*
X171299923Y-115975176D01*
X170772691Y-115756250D01*
X170201813Y-115755752D01*
X169674200Y-115973757D01*
X169270176Y-116377077D01*
X169051250Y-116904309D01*
X169050752Y-117475187D01*
X167348752Y-117475187D01*
X167349248Y-116906813D01*
X167131243Y-116379200D01*
X166727923Y-115975176D01*
X166200691Y-115756250D01*
X165629813Y-115755752D01*
X165102200Y-115973757D01*
X164698176Y-116377077D01*
X164479250Y-116904309D01*
X164478752Y-117475187D01*
X163522305Y-117475187D01*
X163505778Y-117128546D01*
X163339864Y-116727995D01*
X163093745Y-116653861D01*
X162265605Y-117482000D01*
X161906395Y-117482000D01*
X161078255Y-116653861D01*
X160832136Y-116727995D01*
X160639035Y-117265223D01*
X158949189Y-117265223D01*
X158949248Y-117197813D01*
X158731243Y-116670200D01*
X158535640Y-116474255D01*
X161257861Y-116474255D01*
X162086000Y-117302395D01*
X162914139Y-116474255D01*
X162840005Y-116228136D01*
X162302777Y-116035035D01*
X161732546Y-116062222D01*
X161331995Y-116228136D01*
X161257861Y-116474255D01*
X158535640Y-116474255D01*
X158327923Y-116266176D01*
X157800691Y-116047250D01*
X157229813Y-116046752D01*
X156702200Y-116264757D01*
X156298176Y-116668077D01*
X156079250Y-117195309D01*
X156078752Y-117766187D01*
X140708735Y-117766187D01*
X140732965Y-117698777D01*
X140705778Y-117128546D01*
X140539864Y-116727995D01*
X140293745Y-116653861D01*
X139465605Y-117482000D01*
X139106395Y-117482000D01*
X138278255Y-116653861D01*
X138032136Y-116727995D01*
X137839035Y-117265223D01*
X136149189Y-117265223D01*
X136149248Y-117197813D01*
X135931243Y-116670200D01*
X135735640Y-116474255D01*
X138457861Y-116474255D01*
X139286000Y-117302395D01*
X140114139Y-116474255D01*
X140040005Y-116228136D01*
X139502777Y-116035035D01*
X138932546Y-116062222D01*
X138531995Y-116228136D01*
X138457861Y-116474255D01*
X135735640Y-116474255D01*
X135527923Y-116266176D01*
X135000691Y-116047250D01*
X134429813Y-116046752D01*
X133902200Y-116264757D01*
X133498176Y-116668077D01*
X133279250Y-117195309D01*
X133278752Y-117766187D01*
X132200955Y-117766187D01*
X132320750Y-117477691D01*
X132321248Y-116906813D01*
X132103243Y-116379200D01*
X131699923Y-115975176D01*
X131172691Y-115756250D01*
X130601813Y-115755752D01*
X130074200Y-115973757D01*
X129670176Y-116377077D01*
X129451250Y-116904309D01*
X129450752Y-117475187D01*
X127748752Y-117475187D01*
X127749248Y-116906813D01*
X127531243Y-116379200D01*
X127127923Y-115975176D01*
X126600691Y-115756250D01*
X126029813Y-115755752D01*
X125502200Y-115973757D01*
X125098176Y-116377077D01*
X124879250Y-116904309D01*
X124878752Y-117475187D01*
X123922305Y-117475187D01*
X123905778Y-117128546D01*
X123739864Y-116727995D01*
X123493745Y-116653861D01*
X122665605Y-117482000D01*
X122306395Y-117482000D01*
X121478255Y-116653861D01*
X121232136Y-116727995D01*
X121039035Y-117265223D01*
X119349189Y-117265223D01*
X119349248Y-117197813D01*
X119131243Y-116670200D01*
X118935640Y-116474255D01*
X121657861Y-116474255D01*
X122486000Y-117302395D01*
X123314139Y-116474255D01*
X123240005Y-116228136D01*
X122702777Y-116035035D01*
X122132546Y-116062222D01*
X121731995Y-116228136D01*
X121657861Y-116474255D01*
X118935640Y-116474255D01*
X118727923Y-116266176D01*
X118200691Y-116047250D01*
X117629813Y-116046752D01*
X117102200Y-116264757D01*
X116710000Y-116656274D01*
X116710000Y-104014187D01*
X122834752Y-104014187D01*
X123052757Y-104541800D01*
X123456077Y-104945824D01*
X123586215Y-104999862D01*
X123458200Y-105052757D01*
X123054176Y-105456077D01*
X122835250Y-105983309D01*
X122834752Y-106554187D01*
X123052757Y-107081800D01*
X123456077Y-107485824D01*
X123983309Y-107704750D01*
X124554187Y-107705248D01*
X125081800Y-107487243D01*
X125485824Y-107083923D01*
X125539862Y-106953785D01*
X125592757Y-107081800D01*
X125836966Y-107326435D01*
X125502200Y-107464757D01*
X125098176Y-107868077D01*
X124879250Y-108395309D01*
X124878752Y-108966187D01*
X125096757Y-109493800D01*
X125500077Y-109897824D01*
X126027309Y-110116750D01*
X126598187Y-110117248D01*
X127125800Y-109899243D01*
X127335663Y-109689745D01*
X130057861Y-109689745D01*
X130131995Y-109935864D01*
X130669223Y-110128965D01*
X131239454Y-110101778D01*
X131640005Y-109935864D01*
X131714139Y-109689745D01*
X130886000Y-108861605D01*
X130057861Y-109689745D01*
X127335663Y-109689745D01*
X127529824Y-109495923D01*
X127748750Y-108968691D01*
X127749189Y-108465223D01*
X129439035Y-108465223D01*
X129466222Y-109035454D01*
X129632136Y-109436005D01*
X129878255Y-109510139D01*
X130706395Y-108682000D01*
X129878255Y-107853861D01*
X129632136Y-107927995D01*
X129439035Y-108465223D01*
X127749189Y-108465223D01*
X127749248Y-108397813D01*
X127531243Y-107870200D01*
X127287034Y-107625565D01*
X127621800Y-107487243D01*
X128025824Y-107083923D01*
X128079862Y-106953785D01*
X128132757Y-107081800D01*
X128536077Y-107485824D01*
X129063309Y-107704750D01*
X129634187Y-107705248D01*
X130107424Y-107509711D01*
X130057861Y-107674255D01*
X130886000Y-108502395D01*
X130900142Y-108488252D01*
X131079748Y-108667858D01*
X131065605Y-108682000D01*
X131893745Y-109510139D01*
X132139864Y-109436005D01*
X132332965Y-108898777D01*
X132305778Y-108328546D01*
X132139864Y-107927995D01*
X131893747Y-107853861D01*
X132008622Y-107738986D01*
X131974710Y-107705074D01*
X132174187Y-107705248D01*
X132440000Y-107595416D01*
X132440000Y-112085198D01*
X131860320Y-112664878D01*
X131814833Y-112664838D01*
X131471057Y-112806883D01*
X131207808Y-113069673D01*
X131065162Y-113413201D01*
X131064838Y-113785167D01*
X131206883Y-114128943D01*
X131469673Y-114392192D01*
X131813201Y-114534838D01*
X132185167Y-114535162D01*
X132528943Y-114393117D01*
X132792192Y-114130327D01*
X132934838Y-113786799D01*
X132934879Y-113739923D01*
X133737401Y-112937401D01*
X133902148Y-112690840D01*
X133960000Y-112400000D01*
X133960000Y-107628633D01*
X134143309Y-107704750D01*
X134714187Y-107705248D01*
X135241800Y-107487243D01*
X135645824Y-107083923D01*
X135699862Y-106953785D01*
X135752757Y-107081800D01*
X136156077Y-107485824D01*
X136683309Y-107704750D01*
X137254187Y-107705248D01*
X137781800Y-107487243D01*
X138185824Y-107083923D01*
X138239862Y-106953785D01*
X138292757Y-107081800D01*
X138696077Y-107485824D01*
X139223309Y-107704750D01*
X139794187Y-107705248D01*
X140321800Y-107487243D01*
X140725824Y-107083923D01*
X140779862Y-106953785D01*
X140832757Y-107081800D01*
X141236077Y-107485824D01*
X141763309Y-107704750D01*
X142334187Y-107705248D01*
X142861800Y-107487243D01*
X143265824Y-107083923D01*
X143319862Y-106953785D01*
X143372757Y-107081800D01*
X143776077Y-107485824D01*
X144303309Y-107704750D01*
X144874187Y-107705248D01*
X145401800Y-107487243D01*
X145805824Y-107083923D01*
X145859862Y-106953785D01*
X145912757Y-107081800D01*
X146316077Y-107485824D01*
X146843309Y-107704750D01*
X147414187Y-107705248D01*
X147941800Y-107487243D01*
X148345824Y-107083923D01*
X148399862Y-106953785D01*
X148452757Y-107081800D01*
X148856077Y-107485824D01*
X149383309Y-107704750D01*
X149954187Y-107705248D01*
X150481800Y-107487243D01*
X150885824Y-107083923D01*
X150939862Y-106953785D01*
X150992757Y-107081800D01*
X151396077Y-107485824D01*
X151923309Y-107704750D01*
X152494187Y-107705248D01*
X153021800Y-107487243D01*
X153425824Y-107083923D01*
X153479862Y-106953785D01*
X153532757Y-107081800D01*
X153936077Y-107485824D01*
X154463309Y-107704750D01*
X155034187Y-107705248D01*
X155561800Y-107487243D01*
X155965824Y-107083923D01*
X156019862Y-106953785D01*
X156072757Y-107081800D01*
X156476077Y-107485824D01*
X157003309Y-107704750D01*
X157574187Y-107705248D01*
X158101800Y-107487243D01*
X158505824Y-107083923D01*
X158559862Y-106953785D01*
X158612757Y-107081800D01*
X159016077Y-107485824D01*
X159543309Y-107704750D01*
X160114187Y-107705248D01*
X160641800Y-107487243D01*
X161045824Y-107083923D01*
X161099862Y-106953785D01*
X161152757Y-107081800D01*
X161556077Y-107485824D01*
X162083309Y-107704750D01*
X162654187Y-107705248D01*
X163181800Y-107487243D01*
X163585824Y-107083923D01*
X163639862Y-106953785D01*
X163692757Y-107081800D01*
X164096077Y-107485824D01*
X164623309Y-107704750D01*
X164861580Y-107704958D01*
X164698176Y-107868077D01*
X164479250Y-108395309D01*
X164478752Y-108966187D01*
X164696757Y-109493800D01*
X165100077Y-109897824D01*
X165627309Y-110116750D01*
X166198187Y-110117248D01*
X166725800Y-109899243D01*
X166935663Y-109689745D01*
X169657861Y-109689745D01*
X169731995Y-109935864D01*
X170269223Y-110128965D01*
X170839454Y-110101778D01*
X171240005Y-109935864D01*
X171314139Y-109689745D01*
X170486000Y-108861605D01*
X169657861Y-109689745D01*
X166935663Y-109689745D01*
X167129824Y-109495923D01*
X167348750Y-108968691D01*
X167349189Y-108465223D01*
X169039035Y-108465223D01*
X169066222Y-109035454D01*
X169232136Y-109436005D01*
X169478255Y-109510139D01*
X170306395Y-108682000D01*
X170665605Y-108682000D01*
X171493745Y-109510139D01*
X171739864Y-109436005D01*
X171932965Y-108898777D01*
X171905778Y-108328546D01*
X171739864Y-107927995D01*
X171493745Y-107853861D01*
X170665605Y-108682000D01*
X170306395Y-108682000D01*
X169478255Y-107853861D01*
X169232136Y-107927995D01*
X169039035Y-108465223D01*
X167349189Y-108465223D01*
X167349248Y-108397813D01*
X167131243Y-107870200D01*
X166826448Y-107564873D01*
X167163309Y-107704750D01*
X167734187Y-107705248D01*
X168261800Y-107487243D01*
X168665824Y-107083923D01*
X168719862Y-106953785D01*
X168772757Y-107081800D01*
X169176077Y-107485824D01*
X169677738Y-107694132D01*
X170486000Y-108502395D01*
X171314139Y-107674255D01*
X171240005Y-107428136D01*
X170961346Y-107327975D01*
X171205824Y-107083923D01*
X171259862Y-106953785D01*
X171312757Y-107081800D01*
X171716077Y-107485824D01*
X172243309Y-107704750D01*
X172814187Y-107705248D01*
X173341800Y-107487243D01*
X173745824Y-107083923D01*
X173964750Y-106556691D01*
X173965248Y-105985813D01*
X173747243Y-105458200D01*
X173343923Y-105054176D01*
X173213785Y-105000138D01*
X173341800Y-104947243D01*
X173745824Y-104543923D01*
X173964750Y-104016691D01*
X173965248Y-103445813D01*
X173747243Y-102918200D01*
X173343923Y-102514176D01*
X172816691Y-102295250D01*
X172245813Y-102294752D01*
X171718200Y-102512757D01*
X171314176Y-102916077D01*
X171260138Y-103046215D01*
X171207243Y-102918200D01*
X170803923Y-102514176D01*
X170276691Y-102295250D01*
X169705813Y-102294752D01*
X169178200Y-102512757D01*
X168774176Y-102916077D01*
X168720138Y-103046215D01*
X168667243Y-102918200D01*
X168263923Y-102514176D01*
X168249975Y-102508384D01*
X168528943Y-102393117D01*
X168792192Y-102130327D01*
X168934838Y-101786799D01*
X168935162Y-101414833D01*
X168793117Y-101071057D01*
X168530327Y-100807808D01*
X168186799Y-100665162D01*
X167814833Y-100664838D01*
X167471057Y-100806883D01*
X167437882Y-100840000D01*
X167000000Y-100840000D01*
X166709161Y-100897852D01*
X166462599Y-101062599D01*
X165662599Y-101862599D01*
X165497852Y-102109161D01*
X165440683Y-102396565D01*
X165196691Y-102295250D01*
X164625813Y-102294752D01*
X164098200Y-102512757D01*
X163694176Y-102916077D01*
X163640138Y-103046215D01*
X163587243Y-102918200D01*
X163183923Y-102514176D01*
X162656691Y-102295250D01*
X162085813Y-102294752D01*
X161558200Y-102512757D01*
X161154176Y-102916077D01*
X161100138Y-103046215D01*
X161047243Y-102918200D01*
X160643923Y-102514176D01*
X160116691Y-102295250D01*
X159545813Y-102294752D01*
X159018200Y-102512757D01*
X158614176Y-102916077D01*
X158560138Y-103046215D01*
X158507243Y-102918200D01*
X158103923Y-102514176D01*
X157576691Y-102295250D01*
X157005813Y-102294752D01*
X156722562Y-102411789D01*
X156702148Y-102309161D01*
X156537401Y-102062599D01*
X154979968Y-100505166D01*
X155074187Y-100505248D01*
X155601800Y-100287243D01*
X156005824Y-99883923D01*
X156059862Y-99753785D01*
X156112757Y-99881800D01*
X156516077Y-100285824D01*
X157043309Y-100504750D01*
X157614187Y-100505248D01*
X158141800Y-100287243D01*
X158545824Y-99883923D01*
X158599862Y-99753785D01*
X158652757Y-99881800D01*
X159056077Y-100285824D01*
X159583309Y-100504750D01*
X160154187Y-100505248D01*
X160681800Y-100287243D01*
X161085824Y-99883923D01*
X161139862Y-99753785D01*
X161192757Y-99881800D01*
X161596077Y-100285824D01*
X162123309Y-100504750D01*
X162694187Y-100505248D01*
X163221800Y-100287243D01*
X163625824Y-99883923D01*
X163679862Y-99753785D01*
X163732757Y-99881800D01*
X164136077Y-100285824D01*
X164663309Y-100504750D01*
X165234187Y-100505248D01*
X165761800Y-100287243D01*
X165971663Y-100077745D01*
X166661861Y-100077745D01*
X166735995Y-100323864D01*
X167273223Y-100516965D01*
X167843454Y-100489778D01*
X168244005Y-100323864D01*
X168318139Y-100077745D01*
X167490000Y-99249605D01*
X166661861Y-100077745D01*
X165971663Y-100077745D01*
X166165824Y-99883923D01*
X166213448Y-99769232D01*
X166236136Y-99824005D01*
X166482255Y-99898139D01*
X167310395Y-99070000D01*
X166482255Y-98241861D01*
X166236136Y-98315995D01*
X166215195Y-98374254D01*
X166167243Y-98258200D01*
X165763923Y-97854176D01*
X165633785Y-97800138D01*
X165761800Y-97747243D01*
X166165824Y-97343923D01*
X166219862Y-97213785D01*
X166272757Y-97341800D01*
X166676077Y-97745824D01*
X166790768Y-97793448D01*
X166735995Y-97816136D01*
X166661861Y-98062255D01*
X167490000Y-98890395D01*
X168318139Y-98062255D01*
X168244005Y-97816136D01*
X168185746Y-97795195D01*
X168301800Y-97747243D01*
X168705824Y-97343923D01*
X168759862Y-97213785D01*
X168812757Y-97341800D01*
X169216077Y-97745824D01*
X169346215Y-97799862D01*
X169218200Y-97852757D01*
X168814176Y-98256077D01*
X168766552Y-98370768D01*
X168743864Y-98315995D01*
X168497745Y-98241861D01*
X167669605Y-99070000D01*
X168497745Y-99898139D01*
X168743864Y-99824005D01*
X168764805Y-99765746D01*
X168812757Y-99881800D01*
X169216077Y-100285824D01*
X169743309Y-100504750D01*
X170314187Y-100505248D01*
X170841800Y-100287243D01*
X171245824Y-99883923D01*
X171299862Y-99753785D01*
X171352757Y-99881800D01*
X171756077Y-100285824D01*
X172283309Y-100504750D01*
X172854187Y-100505248D01*
X173381800Y-100287243D01*
X173785824Y-99883923D01*
X174004750Y-99356691D01*
X174005248Y-98785813D01*
X173787243Y-98258200D01*
X173383923Y-97854176D01*
X173253785Y-97800138D01*
X173381800Y-97747243D01*
X173785824Y-97343923D01*
X174004750Y-96816691D01*
X174005248Y-96245813D01*
X173787243Y-95718200D01*
X173383923Y-95314176D01*
X172856691Y-95095250D01*
X172285813Y-95094752D01*
X171758200Y-95312757D01*
X171354176Y-95716077D01*
X171300138Y-95846215D01*
X171247243Y-95718200D01*
X170843923Y-95314176D01*
X170316691Y-95095250D01*
X169745813Y-95094752D01*
X169218200Y-95312757D01*
X168814176Y-95716077D01*
X168760138Y-95846215D01*
X168707243Y-95718200D01*
X168303923Y-95314176D01*
X167776691Y-95095250D01*
X167205813Y-95094752D01*
X166678200Y-95312757D01*
X166274176Y-95716077D01*
X166220138Y-95846215D01*
X166167243Y-95718200D01*
X165763923Y-95314176D01*
X165236691Y-95095250D01*
X164665813Y-95094752D01*
X164138200Y-95312757D01*
X163734176Y-95716077D01*
X163680138Y-95846215D01*
X163627243Y-95718200D01*
X163223923Y-95314176D01*
X162696691Y-95095250D01*
X162125813Y-95094752D01*
X161598200Y-95312757D01*
X161194176Y-95716077D01*
X161140138Y-95846215D01*
X161087243Y-95718200D01*
X160683923Y-95314176D01*
X160156691Y-95095250D01*
X159585813Y-95094752D01*
X159058200Y-95312757D01*
X158654176Y-95716077D01*
X158600138Y-95846215D01*
X158547243Y-95718200D01*
X158143923Y-95314176D01*
X157616691Y-95095250D01*
X157045813Y-95094752D01*
X156518200Y-95312757D01*
X156114176Y-95716077D01*
X156060138Y-95846215D01*
X156007243Y-95718200D01*
X155603923Y-95314176D01*
X155076691Y-95095250D01*
X154505813Y-95094752D01*
X153978200Y-95312757D01*
X153574176Y-95716077D01*
X153520138Y-95846215D01*
X153467243Y-95718200D01*
X153063923Y-95314176D01*
X152536691Y-95095250D01*
X151965813Y-95094752D01*
X151438200Y-95312757D01*
X151034176Y-95716077D01*
X150980138Y-95846215D01*
X150927243Y-95718200D01*
X150523923Y-95314176D01*
X149996691Y-95095250D01*
X149425813Y-95094752D01*
X148898200Y-95312757D01*
X148494176Y-95716077D01*
X148440138Y-95846215D01*
X148387243Y-95718200D01*
X147983923Y-95314176D01*
X147456691Y-95095250D01*
X146885813Y-95094752D01*
X146358200Y-95312757D01*
X145954176Y-95716077D01*
X145900138Y-95846215D01*
X145847243Y-95718200D01*
X145443923Y-95314176D01*
X144916691Y-95095250D01*
X144345813Y-95094752D01*
X143818200Y-95312757D01*
X143414176Y-95716077D01*
X143360138Y-95846215D01*
X143307243Y-95718200D01*
X142903923Y-95314176D01*
X142376691Y-95095250D01*
X141805813Y-95094752D01*
X141278200Y-95312757D01*
X140874176Y-95716077D01*
X140655250Y-96243309D01*
X140654752Y-96814187D01*
X140872757Y-97341800D01*
X141276077Y-97745824D01*
X141406215Y-97799862D01*
X141278200Y-97852757D01*
X140874176Y-98256077D01*
X140655250Y-98783309D01*
X140654752Y-99354187D01*
X140872757Y-99881800D01*
X141276077Y-100285824D01*
X141803309Y-100504750D01*
X142374187Y-100505248D01*
X142555521Y-100430323D01*
X143262599Y-101137401D01*
X143509161Y-101302148D01*
X143800000Y-101360000D01*
X145416149Y-101360000D01*
X145262599Y-101462599D01*
X144430337Y-102294861D01*
X144305813Y-102294752D01*
X143778200Y-102512757D01*
X143374176Y-102916077D01*
X143320138Y-103046215D01*
X143267243Y-102918200D01*
X142863923Y-102514176D01*
X142336691Y-102295250D01*
X141765813Y-102294752D01*
X141238200Y-102512757D01*
X140834176Y-102916077D01*
X140780138Y-103046215D01*
X140727243Y-102918200D01*
X140323923Y-102514176D01*
X139796691Y-102295250D01*
X139225813Y-102294752D01*
X138698200Y-102512757D01*
X138294176Y-102916077D01*
X138240138Y-103046215D01*
X138187243Y-102918200D01*
X137783923Y-102514176D01*
X137256691Y-102295250D01*
X136685813Y-102294752D01*
X136158200Y-102512757D01*
X135754176Y-102916077D01*
X135700138Y-103046215D01*
X135647243Y-102918200D01*
X135243923Y-102514176D01*
X134716691Y-102295250D01*
X134145813Y-102294752D01*
X133618200Y-102512757D01*
X133214176Y-102916077D01*
X133160138Y-103046215D01*
X133107243Y-102918200D01*
X132703923Y-102514176D01*
X132176691Y-102295250D01*
X131605813Y-102294752D01*
X131078200Y-102512757D01*
X130674176Y-102916077D01*
X130626552Y-103030768D01*
X130603864Y-102975995D01*
X130357745Y-102901861D01*
X129529605Y-103730000D01*
X130357745Y-104558139D01*
X130603864Y-104484005D01*
X130624805Y-104425746D01*
X130672757Y-104541800D01*
X131076077Y-104945824D01*
X131206215Y-104999862D01*
X131078200Y-105052757D01*
X130674176Y-105456077D01*
X130620138Y-105586215D01*
X130567243Y-105458200D01*
X130163923Y-105054176D01*
X130049232Y-105006552D01*
X130104005Y-104983864D01*
X130178139Y-104737745D01*
X129350000Y-103909605D01*
X128521861Y-104737745D01*
X128595995Y-104983864D01*
X128654254Y-105004805D01*
X128538200Y-105052757D01*
X128134176Y-105456077D01*
X128080138Y-105586215D01*
X128027243Y-105458200D01*
X127623923Y-105054176D01*
X127493785Y-105000138D01*
X127621800Y-104947243D01*
X128025824Y-104543923D01*
X128073448Y-104429232D01*
X128096136Y-104484005D01*
X128342255Y-104558139D01*
X129170395Y-103730000D01*
X128342255Y-102901861D01*
X128096136Y-102975995D01*
X128075195Y-103034254D01*
X128027243Y-102918200D01*
X127831640Y-102722255D01*
X128521861Y-102722255D01*
X129350000Y-103550395D01*
X130178139Y-102722255D01*
X130104005Y-102476136D01*
X129566777Y-102283035D01*
X128996546Y-102310222D01*
X128595995Y-102476136D01*
X128521861Y-102722255D01*
X127831640Y-102722255D01*
X127623923Y-102514176D01*
X127096691Y-102295250D01*
X126525813Y-102294752D01*
X125998200Y-102512757D01*
X125594176Y-102916077D01*
X125540138Y-103046215D01*
X125487243Y-102918200D01*
X125083923Y-102514176D01*
X124556691Y-102295250D01*
X123985813Y-102294752D01*
X123458200Y-102512757D01*
X123054176Y-102916077D01*
X122835250Y-103443309D01*
X122834752Y-104014187D01*
X116710000Y-104014187D01*
X116710000Y-93501795D01*
X117354716Y-93501795D01*
X117603106Y-94102943D01*
X118062637Y-94563278D01*
X118663352Y-94812716D01*
X119313795Y-94813284D01*
X119914943Y-94564894D01*
X120375278Y-94105363D01*
X120624716Y-93504648D01*
X120625284Y-92854205D01*
X120376894Y-92253057D01*
X120323764Y-92199834D01*
X120798187Y-92200248D01*
X121325800Y-91982243D01*
X121535663Y-91772745D01*
X124257861Y-91772745D01*
X124331995Y-92018864D01*
X124869223Y-92211965D01*
X125283468Y-92192215D01*
X125097722Y-92377637D01*
X124848284Y-92978352D01*
X124847716Y-93628795D01*
X125096106Y-94229943D01*
X125555637Y-94690278D01*
X126156352Y-94939716D01*
X126806795Y-94940284D01*
X127407943Y-94691894D01*
X127868278Y-94232363D01*
X128117716Y-93631648D01*
X128118004Y-93301795D01*
X169154716Y-93301795D01*
X169403106Y-93902943D01*
X169862637Y-94363278D01*
X170463352Y-94612716D01*
X171113795Y-94613284D01*
X171714943Y-94364894D01*
X172175278Y-93905363D01*
X172424716Y-93304648D01*
X172425284Y-92654205D01*
X172176894Y-92053057D01*
X172123764Y-91999834D01*
X172598187Y-92000248D01*
X173125800Y-91782243D01*
X173335663Y-91572745D01*
X176057861Y-91572745D01*
X176131995Y-91818864D01*
X176669223Y-92011965D01*
X177083468Y-91992215D01*
X176897722Y-92177637D01*
X176648284Y-92778352D01*
X176647716Y-93428795D01*
X176896106Y-94029943D01*
X177355637Y-94490278D01*
X177956352Y-94739716D01*
X178606795Y-94740284D01*
X179207943Y-94491894D01*
X179668278Y-94032363D01*
X179917716Y-93431648D01*
X179918284Y-92781205D01*
X179669894Y-92180057D01*
X179210363Y-91719722D01*
X178609648Y-91470284D01*
X177970334Y-91469726D01*
X177893747Y-91393139D01*
X178139864Y-91319005D01*
X178332965Y-90781777D01*
X178305778Y-90211546D01*
X178139864Y-89810995D01*
X177893745Y-89736861D01*
X177065605Y-90565000D01*
X177079748Y-90579142D01*
X176900142Y-90758748D01*
X176886000Y-90744605D01*
X176057861Y-91572745D01*
X173335663Y-91572745D01*
X173529824Y-91378923D01*
X173748750Y-90851691D01*
X173749189Y-90348223D01*
X175439035Y-90348223D01*
X175466222Y-90918454D01*
X175632136Y-91319005D01*
X175878255Y-91393139D01*
X176706395Y-90565000D01*
X175878255Y-89736861D01*
X175632136Y-89810995D01*
X175439035Y-90348223D01*
X173749189Y-90348223D01*
X173749248Y-90280813D01*
X173531243Y-89753200D01*
X173335640Y-89557255D01*
X176057861Y-89557255D01*
X176886000Y-90385395D01*
X177714139Y-89557255D01*
X177640005Y-89311136D01*
X177102777Y-89118035D01*
X176532546Y-89145222D01*
X176131995Y-89311136D01*
X176057861Y-89557255D01*
X173335640Y-89557255D01*
X173127923Y-89349176D01*
X172600691Y-89130250D01*
X172029813Y-89129752D01*
X171502200Y-89347757D01*
X171098176Y-89751077D01*
X170879250Y-90278309D01*
X170878752Y-90849187D01*
X171082896Y-91343255D01*
X170466205Y-91342716D01*
X169865057Y-91591106D01*
X169404722Y-92050637D01*
X169155284Y-92651352D01*
X169154716Y-93301795D01*
X128118004Y-93301795D01*
X128118284Y-92981205D01*
X127869894Y-92380057D01*
X127410363Y-91919722D01*
X126809648Y-91670284D01*
X126170334Y-91669726D01*
X126093747Y-91593139D01*
X126339864Y-91519005D01*
X126532965Y-90981777D01*
X126505778Y-90411546D01*
X126339864Y-90010995D01*
X126093745Y-89936861D01*
X125265605Y-90765000D01*
X125279748Y-90779142D01*
X125100142Y-90958748D01*
X125086000Y-90944605D01*
X124257861Y-91772745D01*
X121535663Y-91772745D01*
X121729824Y-91578923D01*
X121948750Y-91051691D01*
X121949189Y-90548223D01*
X123639035Y-90548223D01*
X123666222Y-91118454D01*
X123832136Y-91519005D01*
X124078255Y-91593139D01*
X124906395Y-90765000D01*
X124078255Y-89936861D01*
X123832136Y-90010995D01*
X123639035Y-90548223D01*
X121949189Y-90548223D01*
X121949248Y-90480813D01*
X121731243Y-89953200D01*
X121535640Y-89757255D01*
X124257861Y-89757255D01*
X125086000Y-90585395D01*
X125914139Y-89757255D01*
X125840005Y-89511136D01*
X125302777Y-89318035D01*
X124732546Y-89345222D01*
X124331995Y-89511136D01*
X124257861Y-89757255D01*
X121535640Y-89757255D01*
X121327923Y-89549176D01*
X120800691Y-89330250D01*
X120229813Y-89329752D01*
X119702200Y-89547757D01*
X119298176Y-89951077D01*
X119079250Y-90478309D01*
X119078752Y-91049187D01*
X119282896Y-91543255D01*
X118666205Y-91542716D01*
X118065057Y-91791106D01*
X117604722Y-92250637D01*
X117355284Y-92851352D01*
X117354716Y-93501795D01*
X116710000Y-93501795D01*
X116710000Y-90355861D01*
X116800794Y-90058154D01*
X118570708Y-88730719D01*
X118794869Y-88708979D01*
X118800000Y-88710000D01*
M02*
