G04 #@! TF.FileFunction,Soldermask,Bot*
%FSLAX46Y46*%
G04 Gerber Fmt 4.6, Leading zero omitted, Abs format (unit mm)*
G04 Created by KiCad (PCBNEW 4.0.5+dfsg1-4) date Wed Feb 14 20:28:42 2018*
%MOMM*%
%LPD*%
G01*
G04 APERTURE LIST*
%ADD10C,0.100000*%
%ADD11C,2.000000*%
%ADD12C,2.400000*%
%ADD13C,2.200000*%
G04 APERTURE END LIST*
D10*
D11*
X120514000Y-90765000D03*
X125086000Y-90765000D03*
D12*
X126483000Y-93305000D03*
X118990000Y-93178000D03*
D13*
X146102000Y-131600000D03*
X139498000Y-131600000D03*
X157302000Y-131600000D03*
X150698000Y-131600000D03*
D11*
X172314000Y-90565000D03*
X176886000Y-90565000D03*
D12*
X178283000Y-93105000D03*
X170790000Y-92978000D03*
D11*
X130886000Y-117191000D03*
X126314000Y-117191000D03*
X130886000Y-108682000D03*
X126314000Y-108682000D03*
X162086000Y-125991000D03*
X157514000Y-125991000D03*
X162086000Y-117482000D03*
X157514000Y-117482000D03*
X170486000Y-134791000D03*
X165914000Y-134791000D03*
X170486000Y-126282000D03*
X165914000Y-126282000D03*
X142090000Y-96530000D03*
X144630000Y-96530000D03*
X147170000Y-96530000D03*
X149710000Y-96530000D03*
X152250000Y-96530000D03*
X154790000Y-96530000D03*
X157330000Y-96530000D03*
X159870000Y-96530000D03*
X162410000Y-96530000D03*
X164950000Y-96530000D03*
X167490000Y-96530000D03*
X170030000Y-96530000D03*
X172570000Y-96530000D03*
X142090000Y-99070000D03*
X172570000Y-99070000D03*
X170030000Y-99070000D03*
X167490000Y-99070000D03*
X164950000Y-99070000D03*
X162410000Y-99070000D03*
X159870000Y-99070000D03*
X157330000Y-99070000D03*
X154790000Y-99070000D03*
X152250000Y-99070000D03*
X149710000Y-99070000D03*
X147170000Y-99070000D03*
X144630000Y-99070000D03*
X178886000Y-125991000D03*
X174314000Y-125991000D03*
X178886000Y-117482000D03*
X174314000Y-117482000D03*
X139286000Y-125991000D03*
X134714000Y-125991000D03*
X139286000Y-117482000D03*
X134714000Y-117482000D03*
X170486000Y-117191000D03*
X165914000Y-117191000D03*
X170486000Y-108682000D03*
X165914000Y-108682000D03*
X122486000Y-125991000D03*
X117914000Y-125991000D03*
X122486000Y-117482000D03*
X117914000Y-117482000D03*
X130886000Y-134791000D03*
X126314000Y-134791000D03*
X130886000Y-126282000D03*
X126314000Y-126282000D03*
X147130000Y-106270000D03*
X147130000Y-103730000D03*
X144590000Y-106270000D03*
X142050000Y-106270000D03*
X139510000Y-106270000D03*
X136970000Y-106270000D03*
X134430000Y-106270000D03*
X131890000Y-106270000D03*
X129350000Y-106270000D03*
X126810000Y-106270000D03*
X124270000Y-106270000D03*
X144590000Y-103730000D03*
X142050000Y-103730000D03*
X139510000Y-103730000D03*
X136970000Y-103730000D03*
X134430000Y-103730000D03*
X131890000Y-103730000D03*
X129350000Y-103730000D03*
X126810000Y-103730000D03*
X124270000Y-103730000D03*
X149670000Y-106270000D03*
X149670000Y-103730000D03*
X152210000Y-106270000D03*
X152210000Y-103730000D03*
X154750000Y-106270000D03*
X154750000Y-103730000D03*
X157290000Y-106270000D03*
X157290000Y-103730000D03*
X159830000Y-106270000D03*
X159830000Y-103730000D03*
X162370000Y-106270000D03*
X162370000Y-103730000D03*
X164910000Y-106270000D03*
X164910000Y-103730000D03*
X167450000Y-106270000D03*
X167450000Y-103730000D03*
X169990000Y-106270000D03*
X169990000Y-103730000D03*
X172530000Y-106270000D03*
X172530000Y-103730000D03*
M02*
