G04 #@! TF.FileFunction,Legend,Top*
%FSLAX46Y46*%
G04 Gerber Fmt 4.6, Leading zero omitted, Abs format (unit mm)*
G04 Created by KiCad (PCBNEW 4.0.5+dfsg1-4) date Wed Feb 14 20:28:42 2018*
%MOMM*%
%LPD*%
G01*
G04 APERTURE LIST*
%ADD10C,0.100000*%
%ADD11C,0.300000*%
%ADD12C,0.150000*%
G04 APERTURE END LIST*
D10*
D11*
X141257143Y-111030952D02*
X142923810Y-111030952D01*
X141257143Y-113530952D01*
X142923810Y-113530952D01*
X144828571Y-113411905D02*
X144590476Y-113530952D01*
X144114285Y-113530952D01*
X143876190Y-113411905D01*
X143757142Y-113173810D01*
X143757142Y-112221429D01*
X143876190Y-111983333D01*
X144114285Y-111864286D01*
X144590476Y-111864286D01*
X144828571Y-111983333D01*
X144947619Y-112221429D01*
X144947619Y-112459524D01*
X143757142Y-112697619D01*
X146019047Y-113530952D02*
X146019047Y-111864286D01*
X146019047Y-112340476D02*
X146138095Y-112102381D01*
X146257142Y-111983333D01*
X146495238Y-111864286D01*
X146733333Y-111864286D01*
X147923809Y-113530952D02*
X147685714Y-113411905D01*
X147566666Y-113292857D01*
X147447618Y-113054762D01*
X147447618Y-112340476D01*
X147566666Y-112102381D01*
X147685714Y-111983333D01*
X147923809Y-111864286D01*
X148280952Y-111864286D01*
X148519047Y-111983333D01*
X148638095Y-112102381D01*
X148757142Y-112340476D01*
X148757142Y-113054762D01*
X148638095Y-113292857D01*
X148519047Y-113411905D01*
X148280952Y-113530952D01*
X147923809Y-113530952D01*
X150661904Y-112221429D02*
X151019047Y-112340476D01*
X151138095Y-112459524D01*
X151257143Y-112697619D01*
X151257143Y-113054762D01*
X151138095Y-113292857D01*
X151019047Y-113411905D01*
X150780952Y-113530952D01*
X149828571Y-113530952D01*
X149828571Y-111030952D01*
X150661904Y-111030952D01*
X150900000Y-111150000D01*
X151019047Y-111269048D01*
X151138095Y-111507143D01*
X151138095Y-111745238D01*
X151019047Y-111983333D01*
X150900000Y-112102381D01*
X150661904Y-112221429D01*
X149828571Y-112221429D01*
X152685714Y-113530952D02*
X152447619Y-113411905D01*
X152328571Y-113292857D01*
X152209523Y-113054762D01*
X152209523Y-112340476D01*
X152328571Y-112102381D01*
X152447619Y-111983333D01*
X152685714Y-111864286D01*
X153042857Y-111864286D01*
X153280952Y-111983333D01*
X153400000Y-112102381D01*
X153519047Y-112340476D01*
X153519047Y-113054762D01*
X153400000Y-113292857D01*
X153280952Y-113411905D01*
X153042857Y-113530952D01*
X152685714Y-113530952D01*
X154352381Y-111864286D02*
X154947619Y-113530952D01*
X155542857Y-111864286D02*
X154947619Y-113530952D01*
X154709524Y-114126190D01*
X154590476Y-114245238D01*
X154352381Y-114364286D01*
X169264286Y-91878571D02*
X168764286Y-91164286D01*
X168407143Y-91878571D02*
X168407143Y-90378571D01*
X168978571Y-90378571D01*
X169121429Y-90450000D01*
X169192857Y-90521429D01*
X169264286Y-90664286D01*
X169264286Y-90878571D01*
X169192857Y-91021429D01*
X169121429Y-91092857D01*
X168978571Y-91164286D01*
X168407143Y-91164286D01*
X128464286Y-91878571D02*
X127750000Y-91878571D01*
X127750000Y-90378571D01*
X128278571Y-125028571D02*
X128707143Y-126171428D01*
X129135714Y-125028571D01*
X125971429Y-121478571D02*
X124828572Y-121907143D01*
X125971429Y-122335714D01*
X131428572Y-121478571D02*
X132571429Y-121907143D01*
X131428572Y-122335714D01*
X128278571Y-118571428D02*
X128707143Y-117428571D01*
X129135714Y-118571428D01*
X167700001Y-117578571D02*
X168700001Y-119078571D01*
X168700001Y-117578571D02*
X167700001Y-119078571D01*
X159800000Y-127164286D02*
X159800000Y-127878571D01*
X159300000Y-126378571D02*
X159800000Y-127164286D01*
X160300000Y-126378571D01*
X168307143Y-125292857D02*
X168521429Y-125364286D01*
X168592857Y-125435714D01*
X168664286Y-125578571D01*
X168664286Y-125792857D01*
X168592857Y-125935714D01*
X168521429Y-126007143D01*
X168378571Y-126078571D01*
X167807143Y-126078571D01*
X167807143Y-124578571D01*
X168307143Y-124578571D01*
X168450000Y-124650000D01*
X168521429Y-124721429D01*
X168592857Y-124864286D01*
X168592857Y-125007143D01*
X168521429Y-125150000D01*
X168450000Y-125221429D01*
X168307143Y-125292857D01*
X167807143Y-125292857D01*
X176242857Y-116850000D02*
X176957143Y-116850000D01*
X176100000Y-117278571D02*
X176600000Y-115778571D01*
X177100000Y-117278571D01*
X151571429Y-129007143D02*
X151785715Y-129078571D01*
X152142858Y-129078571D01*
X152285715Y-129007143D01*
X152357144Y-128935714D01*
X152428572Y-128792857D01*
X152428572Y-128650000D01*
X152357144Y-128507143D01*
X152285715Y-128435714D01*
X152142858Y-128364286D01*
X151857144Y-128292857D01*
X151714286Y-128221429D01*
X151642858Y-128150000D01*
X151571429Y-128007143D01*
X151571429Y-127864286D01*
X151642858Y-127721429D01*
X151714286Y-127650000D01*
X151857144Y-127578571D01*
X152214286Y-127578571D01*
X152428572Y-127650000D01*
X152857143Y-128078571D02*
X153428572Y-128078571D01*
X153071429Y-127578571D02*
X153071429Y-128864286D01*
X153142857Y-129007143D01*
X153285715Y-129078571D01*
X153428572Y-129078571D01*
X154571429Y-129078571D02*
X154571429Y-128292857D01*
X154500000Y-128150000D01*
X154357143Y-128078571D01*
X154071429Y-128078571D01*
X153928572Y-128150000D01*
X154571429Y-129007143D02*
X154428572Y-129078571D01*
X154071429Y-129078571D01*
X153928572Y-129007143D01*
X153857143Y-128864286D01*
X153857143Y-128721429D01*
X153928572Y-128578571D01*
X154071429Y-128507143D01*
X154428572Y-128507143D01*
X154571429Y-128435714D01*
X155285715Y-129078571D02*
X155285715Y-128078571D01*
X155285715Y-128364286D02*
X155357143Y-128221429D01*
X155428572Y-128150000D01*
X155571429Y-128078571D01*
X155714286Y-128078571D01*
X156000000Y-128078571D02*
X156571429Y-128078571D01*
X156214286Y-127578571D02*
X156214286Y-128864286D01*
X156285714Y-129007143D01*
X156428572Y-129078571D01*
X156571429Y-129078571D01*
X139621429Y-129007143D02*
X139835715Y-129078571D01*
X140192858Y-129078571D01*
X140335715Y-129007143D01*
X140407144Y-128935714D01*
X140478572Y-128792857D01*
X140478572Y-128650000D01*
X140407144Y-128507143D01*
X140335715Y-128435714D01*
X140192858Y-128364286D01*
X139907144Y-128292857D01*
X139764286Y-128221429D01*
X139692858Y-128150000D01*
X139621429Y-128007143D01*
X139621429Y-127864286D01*
X139692858Y-127721429D01*
X139764286Y-127650000D01*
X139907144Y-127578571D01*
X140264286Y-127578571D01*
X140478572Y-127650000D01*
X141692857Y-129007143D02*
X141550000Y-129078571D01*
X141264286Y-129078571D01*
X141121429Y-129007143D01*
X141050000Y-128864286D01*
X141050000Y-128292857D01*
X141121429Y-128150000D01*
X141264286Y-128078571D01*
X141550000Y-128078571D01*
X141692857Y-128150000D01*
X141764286Y-128292857D01*
X141764286Y-128435714D01*
X141050000Y-128578571D01*
X142621429Y-129078571D02*
X142478571Y-129007143D01*
X142407143Y-128864286D01*
X142407143Y-127578571D01*
X143764285Y-129007143D02*
X143621428Y-129078571D01*
X143335714Y-129078571D01*
X143192857Y-129007143D01*
X143121428Y-128864286D01*
X143121428Y-128292857D01*
X143192857Y-128150000D01*
X143335714Y-128078571D01*
X143621428Y-128078571D01*
X143764285Y-128150000D01*
X143835714Y-128292857D01*
X143835714Y-128435714D01*
X143121428Y-128578571D01*
X145121428Y-129007143D02*
X144978571Y-129078571D01*
X144692857Y-129078571D01*
X144549999Y-129007143D01*
X144478571Y-128935714D01*
X144407142Y-128792857D01*
X144407142Y-128364286D01*
X144478571Y-128221429D01*
X144549999Y-128150000D01*
X144692857Y-128078571D01*
X144978571Y-128078571D01*
X145121428Y-128150000D01*
X145549999Y-128078571D02*
X146121428Y-128078571D01*
X145764285Y-127578571D02*
X145764285Y-128864286D01*
X145835713Y-129007143D01*
X145978571Y-129078571D01*
X146121428Y-129078571D01*
D12*
X121022000Y-88098000D02*
X121022000Y-83653000D01*
X121022000Y-83653000D02*
X124578000Y-83653000D01*
X124578000Y-83653000D02*
X124578000Y-88098000D01*
X122800000Y-94702000D02*
X118990000Y-94702000D01*
X118990000Y-94702000D02*
X118990000Y-88098000D01*
X118990000Y-88098000D02*
X126610000Y-88098000D01*
X126610000Y-88098000D02*
X126610000Y-94702000D01*
X126610000Y-94702000D02*
X122800000Y-94702000D01*
X141276000Y-130838000D02*
X141276000Y-132362000D01*
X141276000Y-132362000D02*
X144324000Y-132362000D01*
X144324000Y-132362000D02*
X144324000Y-130838000D01*
X144324000Y-130838000D02*
X141276000Y-130838000D01*
X139498000Y-132616000D02*
X139498000Y-133378000D01*
X139498000Y-133378000D02*
X146102000Y-133378000D01*
X146102000Y-133378000D02*
X146102000Y-132616000D01*
X139498000Y-129822000D02*
X139498000Y-130584000D01*
X139498000Y-129822000D02*
X146102000Y-129822000D01*
X146102000Y-129822000D02*
X146102000Y-130584000D01*
X152476000Y-130838000D02*
X152476000Y-132362000D01*
X152476000Y-132362000D02*
X155524000Y-132362000D01*
X155524000Y-132362000D02*
X155524000Y-130838000D01*
X155524000Y-130838000D02*
X152476000Y-130838000D01*
X150698000Y-132616000D02*
X150698000Y-133378000D01*
X150698000Y-133378000D02*
X157302000Y-133378000D01*
X157302000Y-133378000D02*
X157302000Y-132616000D01*
X150698000Y-129822000D02*
X150698000Y-130584000D01*
X150698000Y-129822000D02*
X157302000Y-129822000D01*
X157302000Y-129822000D02*
X157302000Y-130584000D01*
X172822000Y-87898000D02*
X172822000Y-83453000D01*
X172822000Y-83453000D02*
X176378000Y-83453000D01*
X176378000Y-83453000D02*
X176378000Y-87898000D01*
X174600000Y-94502000D02*
X170790000Y-94502000D01*
X170790000Y-94502000D02*
X170790000Y-87898000D01*
X170790000Y-87898000D02*
X178410000Y-87898000D01*
X178410000Y-87898000D02*
X178410000Y-94502000D01*
X178410000Y-94502000D02*
X174600000Y-94502000D01*
X129567203Y-113000000D02*
G75*
G03X129567203Y-113000000I-967203J0D01*
G01*
X130931410Y-113000000D02*
G75*
G03X130931410Y-113000000I-2331410J0D01*
G01*
X132537000Y-109063000D02*
X132537000Y-116937000D01*
X132537000Y-116937000D02*
X124663000Y-116937000D01*
X124663000Y-116937000D02*
X124663000Y-109063000D01*
X128600000Y-109063000D02*
X124663000Y-109063000D01*
X132410000Y-109063000D02*
X132537000Y-109063000D01*
X128600000Y-109063000D02*
X132410000Y-109063000D01*
X160767203Y-121800000D02*
G75*
G03X160767203Y-121800000I-967203J0D01*
G01*
X162131410Y-121800000D02*
G75*
G03X162131410Y-121800000I-2331410J0D01*
G01*
X163737000Y-117863000D02*
X163737000Y-125737000D01*
X163737000Y-125737000D02*
X155863000Y-125737000D01*
X155863000Y-125737000D02*
X155863000Y-117863000D01*
X159800000Y-117863000D02*
X155863000Y-117863000D01*
X163610000Y-117863000D02*
X163737000Y-117863000D01*
X159800000Y-117863000D02*
X163610000Y-117863000D01*
X169167203Y-130600000D02*
G75*
G03X169167203Y-130600000I-967203J0D01*
G01*
X170531410Y-130600000D02*
G75*
G03X170531410Y-130600000I-2331410J0D01*
G01*
X172137000Y-126663000D02*
X172137000Y-134537000D01*
X172137000Y-134537000D02*
X164263000Y-134537000D01*
X164263000Y-134537000D02*
X164263000Y-126663000D01*
X168200000Y-126663000D02*
X164263000Y-126663000D01*
X172010000Y-126663000D02*
X172137000Y-126663000D01*
X168200000Y-126663000D02*
X172010000Y-126663000D01*
X177567203Y-121800000D02*
G75*
G03X177567203Y-121800000I-967203J0D01*
G01*
X178931410Y-121800000D02*
G75*
G03X178931410Y-121800000I-2331410J0D01*
G01*
X180537000Y-117863000D02*
X180537000Y-125737000D01*
X180537000Y-125737000D02*
X172663000Y-125737000D01*
X172663000Y-125737000D02*
X172663000Y-117863000D01*
X176600000Y-117863000D02*
X172663000Y-117863000D01*
X180410000Y-117863000D02*
X180537000Y-117863000D01*
X176600000Y-117863000D02*
X180410000Y-117863000D01*
X137967203Y-121800000D02*
G75*
G03X137967203Y-121800000I-967203J0D01*
G01*
X139331410Y-121800000D02*
G75*
G03X139331410Y-121800000I-2331410J0D01*
G01*
X140937000Y-117863000D02*
X140937000Y-125737000D01*
X140937000Y-125737000D02*
X133063000Y-125737000D01*
X133063000Y-125737000D02*
X133063000Y-117863000D01*
X137000000Y-117863000D02*
X133063000Y-117863000D01*
X140810000Y-117863000D02*
X140937000Y-117863000D01*
X137000000Y-117863000D02*
X140810000Y-117863000D01*
X169167203Y-113000000D02*
G75*
G03X169167203Y-113000000I-967203J0D01*
G01*
X170531410Y-113000000D02*
G75*
G03X170531410Y-113000000I-2331410J0D01*
G01*
X172137000Y-109063000D02*
X172137000Y-116937000D01*
X172137000Y-116937000D02*
X164263000Y-116937000D01*
X164263000Y-116937000D02*
X164263000Y-109063000D01*
X168200000Y-109063000D02*
X164263000Y-109063000D01*
X172010000Y-109063000D02*
X172137000Y-109063000D01*
X168200000Y-109063000D02*
X172010000Y-109063000D01*
X121167203Y-121800000D02*
G75*
G03X121167203Y-121800000I-967203J0D01*
G01*
X122531410Y-121800000D02*
G75*
G03X122531410Y-121800000I-2331410J0D01*
G01*
X124137000Y-117863000D02*
X124137000Y-125737000D01*
X124137000Y-125737000D02*
X116263000Y-125737000D01*
X116263000Y-125737000D02*
X116263000Y-117863000D01*
X120200000Y-117863000D02*
X116263000Y-117863000D01*
X124010000Y-117863000D02*
X124137000Y-117863000D01*
X120200000Y-117863000D02*
X124010000Y-117863000D01*
X129567203Y-130600000D02*
G75*
G03X129567203Y-130600000I-967203J0D01*
G01*
X130931410Y-130600000D02*
G75*
G03X130931410Y-130600000I-2331410J0D01*
G01*
X132537000Y-126663000D02*
X132537000Y-134537000D01*
X132537000Y-134537000D02*
X124663000Y-134537000D01*
X124663000Y-134537000D02*
X124663000Y-126663000D01*
X128600000Y-126663000D02*
X124663000Y-126663000D01*
X132410000Y-126663000D02*
X132537000Y-126663000D01*
X128600000Y-126663000D02*
X132410000Y-126663000D01*
M02*
